<svg xmlns="http://www.w3.org/2000/svg" width="200" height="200" viewBox="0 0 200 200"><path d="M13.672 21.484h12.109v14.063h148.438V21.484h12.109v14.063H200v42.188h-13.672v18.75H200v42.188h-13.672v27.734H200v12.109h-39.844v-12.109h14.063v-27.734H25.781v27.734h14.063v12.109H0v-12.109h13.672v-27.734H0V96.484h13.672v-18.75H0V35.547h13.672zm12.109 56.25v18.75h148.438v-18.75z" fill="#F8F8F8"/><path d="M174.219 21.484h12.109v14.063H200v42.188h-13.672v18.75H200v42.188h-13.672v27.734H200v12.109h-39.844v-12.109h14.063v-27.734H46.875c1.132-1.698 2.264-3.23 3.589-4.761l1.156-1.354.575-.673c1.044-1.229 2.058-2.482 3.077-3.732q1.827-2.238 3.664-4.471l.713-.867a380 380 0 0 1 4.292-5.115 141 141 0 0 0 4.175-5.151c1.719-2.217 3.528-4.337 5.379-6.444 1.837-2.104 3.571-4.277 5.28-6.486l.913-1.181.606-1.036c1.443-1.384 2.743-1.183 4.674-1.152l1.155-.005c1.28-.003 2.56.008 3.84.018q1.374.001 2.748-.001 3.736.002 7.471.025c2.338.011 4.676.013 7.014.015q6.947.007 13.893.036a6307 6307 0 0 0 14.336.041l4.173.008c11.54.02 23.081.056 34.621.098v-18.75h-55.078c.761-1.521 1.656-2.663 2.759-3.93q.586-.682 1.17-1.366l.589-.686c1.387-1.628 2.727-3.295 4.076-4.955a366 366 0 0 1 5.615-6.763 145 145 0 0 0 4.297-5.298c1.72-2.22 3.532-4.341 5.384-6.451 1.748-2.001 3.392-4.065 5.007-6.174l.547-.65c.697-.879.697-.879 1.348-2.123 1.184-1.943 2.365-3.491 4.657-4.056 3.177-.376 6.359-.197 9.546-.053q1.466.039 2.934.07c2.386.052 4.763.151 7.149.248z" fill="#FE6326"/><path d="M53.594 95.988q1.199.014 2.398.022c2.093.02 4.183.069 6.275.125 2.139.052 4.279.075 6.418.101 4.189.055 8.377.141 12.565.248-.709 1.508-1.672 2.681-2.759 3.931l-1.178 1.375-.59.688a160 160 0 0 0-2.236 2.698 1579 1579 0 0 1-4.516 5.518l-.713.867a380 380 0 0 1-4.292 5.115 141 141 0 0 0-4.175 5.151c-1.719 2.218-3.529 4.338-5.38 6.446a121 121 0 0 0-4.717 5.779 68 68 0 0 1-.952 1.208c-.533.667-.533.667-.962 1.39-.836 1.219-1.459 1.918-2.929 2.262-1.281.077-2.536.068-3.818.027l-1.25-.008c-1.534-.014-3.067-.053-4.601-.088l-10.401-.171v27.734h14.063v12.109H0v-12.109h13.672v-27.734h-2.734c.645-1.53 1.681-2.691 2.759-3.93q.586-.682 1.17-1.366l.589-.686c1.387-1.628 2.727-3.295 4.076-4.955a366 366 0 0 1 5.615-6.763 145 145 0 0 0 4.297-5.298c1.72-2.22 3.532-4.341 5.384-6.451 1.748-2.001 3.392-4.065 5.007-6.174l.541-.655c.695-.874.695-.874 1.404-2.07 3.102-4.691 6.542-4.52 11.814-4.336" fill="#F8F8F8"/><path d="M200 96.484v42.188h-13.672v27.734H200v12.109h-39.844v-12.109h14.063v-27.734h-19.141c2.742-3.655 5.629-7.159 8.587-10.638a184 184 0 0 0 3.881-4.761 164 164 0 0 1 2.888-3.448 143 143 0 0 0 4.321-5.322c1.74-2.244 3.57-4.396 5.439-6.534a191 191 0 0 0 3.668-4.306l.862-1.012a14.4 14.4 0 0 0 1.535-2.481c3.361-5.934 5.914-3.686 13.741-3.686" fill="#E2DEF3"/><path d="M174.219 21.484h12.109v14.063h3.125c-.645 1.53-1.681 2.691-2.759 3.931l-1.178 1.375-.59.688a160 160 0 0 0-2.236 2.698 1579 1579 0 0 1-4.517 5.518l-.713.867a380 380 0 0 1-4.292 5.115 141 141 0 0 0-4.175 5.151c-1.719 2.218-3.529 4.338-5.38 6.446a121 121 0 0 0-4.717 5.779q-.469.609-.947 1.208a27 27 0 0 0-1.012 1.389c-.767 1.042-1.383 1.874-2.646 2.271-.937.089-1.838.091-2.779.063l-1.063.001a200 200 0 0 1-3.462-.045q-1.204-.008-2.407-.012a667 667 0 0 1-6.323-.068c-2.152-.028-4.305-.041-6.457-.055a1889 1889 0 0 1-12.659-.133c.709-1.508 1.672-2.681 2.759-3.93q.586-.682 1.17-1.366l.589-.686c1.387-1.628 2.727-3.295 4.076-4.955a366 366 0 0 1 5.615-6.763 145 145 0 0 0 4.297-5.298c1.72-2.22 3.532-4.341 5.384-6.451 1.748-2.001 3.392-4.065 5.007-6.174l.547-.65c.697-.879.697-.879 1.348-2.123 1.184-1.943 2.365-3.491 4.657-4.056 3.177-.376 6.359-.197 9.546-.053q1.466.039 2.934.07c2.386.052 4.763.151 7.149.248z" fill="#FE6326"/><path d="m121.099 35.281 1.063-.001c1.156.002 2.313.02 3.469.038q1.204.007 2.409.01c2.111.009 4.221.032 6.332.058 2.155.024 4.31.035 6.465.046q6.34.039 12.679.114a44.5 44.5 0 0 1-3.589 4.761l-1.727 2.02c-.78.92-1.541 1.854-2.302 2.79a280 280 0 0 1-3.93 4.712 200 200 0 0 0-4.436 5.414 164 164 0 0 1-2.888 3.448 143 143 0 0 0-4.321 5.322c-1.705 2.2-3.49 4.316-5.345 6.391l-.589.666-.613.672c-.782.93-.782.93-1.421 2.162-1.009 1.742-2.066 3.438-4.048 4.115-2.479.438-4.989.297-7.494.211q-1.213-.014-2.427-.022c-2.119-.02-4.236-.069-6.354-.125-2.165-.052-4.331-.075-6.497-.101a1038 1038 0 0 1-12.723-.248c2.458-3.299 2.458-3.299 3.618-4.704l.658-.798.68-.82.722-.875a498 498 0 0 1 4.881-5.795 131 131 0 0 0 3.65-4.537c1.74-2.244 3.568-4.395 5.438-6.532a213 213 0 0 0 5.354-6.407 480 480 0 0 1 6.805-8.186c1.022-1.16 1.022-1.16 1.827-2.418 1.315-1.565 2.721-1.43 4.654-1.38" fill="#E2DEF3"/><path d="m83.75 96.241 1.012.021 1.074-.001c1.171.002 2.342.017 3.513.032l2.437.008c2.138.008 4.275.027 6.412.048 2.181.02 4.362.029 6.543.039q6.42.032 12.837.095l-1.108 1.486-.623.836c-.841 1.103-1.732 2.146-2.639 3.196a138 138 0 0 0-4.37 5.371c-1.721 2.22-3.533 4.343-5.386 6.453a105 105 0 0 0-4.038 4.925c-1.703 2.206-3.499 4.311-5.337 6.404a91 91 0 0 0-3.483 4.21 130 130 0 0 1-1.051 1.336 53 53 0 0 0-2.679 3.641c-1.573 2.228-3.096 4.289-5.892 4.844-2.174.236-4.336.148-6.517.059q-1.198-.016-2.395-.025c-2.086-.022-4.17-.08-6.255-.145-2.134-.06-4.268-.087-6.403-.116a855 855 0 0 1-12.527-.286 44.5 44.5 0 0 1 3.589-4.761l1.157-1.353.575-.673c1.044-1.229 2.058-2.482 3.077-3.732q1.828-2.238 3.664-4.471l.713-.867a380 380 0 0 1 4.292-5.115 140 140 0 0 0 4.175-5.151c1.719-2.217 3.528-4.337 5.379-6.444 1.837-2.104 3.571-4.277 5.28-6.486l.912-1.181.619-1.036c1.196-1.162 1.829-1.146 3.444-1.16" fill="#FE8659"/><path d="M125.783 96.065q1.201.012 2.402.018c2.098.016 4.195.059 6.294.106 2.145.044 4.289.064 6.434.085 4.202.046 8.402.119 12.603.21-.676 1.141-1.327 2.206-2.202 3.203l-.58.667-.611.695a160 160 0 0 0-4.791 5.769 152 152 0 0 1-2.875 3.435 143 143 0 0 0-4.321 5.322c-1.721 2.22-3.533 4.343-5.386 6.453-1.586 1.816-3.082 3.686-4.555 5.595-1.565 2.013-3.224 3.936-4.916 5.843l-.604.685-.568.638c-.635.74-.635.74-1.123 1.564-1.357 2.145-1.357 2.145-2.633 2.6-.95.102-1.854.104-2.809.072l-1.075.002c-1.167-.002-2.333-.027-3.5-.051q-1.216-.009-2.434-.014a619 619 0 0 1-6.392-.077c-2.176-.032-4.352-.046-6.528-.062a1690 1690 0 0 1-12.8-.151l1.107-1.484.622-.834c.857-1.126 1.767-2.201 2.69-3.273a258 258 0 0 0 3.979-4.761 280 280 0 0 1 3.931-4.712 200 200 0 0 0 4.436-5.414 164 164 0 0 1 2.888-3.448 143 143 0 0 0 4.321-5.322c1.721-2.219 3.522-4.354 5.379-6.46l.593-.674.605-.658c.737-.85.737-.85 1.305-1.923 2.758-4.39 6.45-3.781 11.113-3.644" fill="#E2DEF3"/><path d="M89.616 35.013q1.213.015 2.425.023c2.116.021 4.229.074 6.344.135 2.163.056 4.326.081 6.489.108 4.235.059 8.469.152 12.704.267l-1.1 1.477-.619.831c-.925 1.21-1.918 2.355-2.92 3.502a165 165 0 0 0-4.715 5.691 167 167 0 0 1-2.927 3.513 397 397 0 0 0-5.688 6.86 366 366 0 0 1-5.615 6.763 127 127 0 0 0-3.76 4.602q-.531.682-1.071 1.356c-.929 1.159-1.803 2.321-2.608 3.57-1.47 2.148-2.879 3.999-5.548 4.5-2.173.223-4.335.138-6.514.056q-1.198-.015-2.397-.023a327 327 0 0 1-6.265-.135c-2.137-.056-4.273-.081-6.41-.108a937 937 0 0 1-12.546-.267c.925-1.585 1.973-2.962 3.174-4.346l1.163-1.358.582-.679c.782-.921 1.546-1.858 2.308-2.796a280 280 0 0 1 3.931-4.712 200 200 0 0 0 4.436-5.414 164 164 0 0 1 2.888-3.448 143 143 0 0 0 4.321-5.322 119 119 0 0 1 5.311-6.357l.586-.662.619-.678c.82-.972.82-.972 1.541-2.282 3.037-4.981 6.414-4.871 11.883-4.667M13.672 77.734h12.109v18.75h19.531c-1.132 1.698-2.264 3.23-3.589 4.761q-.577.673-1.152 1.347l-.574.672c-.78.92-1.541 1.854-2.302 2.79a280 280 0 0 1-3.93 4.712 200 200 0 0 0-4.436 5.414 164 164 0 0 1-2.888 3.448 143 143 0 0 0-4.321 5.322 105 105 0 0 1-5.427 6.467c-1.232 1.37-2.195 2.648-2.95 4.335-.485.746-.485.746-2.805 2.918H0V96.484h13.672zm0-56.25h12.109v14.063h19.531a189 189 0 0 1-7.42 9.255 163 163 0 0 0-4.836 5.93c-1.74 2.244-3.568 4.395-5.438 6.532a214 214 0 0 0-5.352 6.408 436 436 0 0 1-6.208 7.475 324 324 0 0 0-4.464 5.397c-.656.8-.656.8-1.047 1.19H0V35.547h13.672z" fill="#FE8659"/><path d="M189.453 35.547H200v42.188h-44.922c1.132-1.698 2.264-3.23 3.589-4.761l1.156-1.354.575-.673c1.044-1.229 2.058-2.482 3.077-3.732q1.827-2.239 3.664-4.471l.713-.867a380 380 0 0 1 4.292-5.115 141 141 0 0 0 4.175-5.151c1.719-2.217 3.528-4.337 5.379-6.444 1.837-2.104 3.571-4.277 5.28-6.486a248 248 0 0 1 2.475-3.134" fill="#E1DEF3"/><path d="M174.219 138.672h12.109v27.734H200v12.109h-39.844v-12.109h14.063z" fill="#2E2653"/><path d="M13.672 138.672h12.109v27.734h14.063v12.109H0v-12.109h13.672z" fill="#443C81"/><path d="M174.219 77.734h12.109v18.75h-12.109z" fill="#2E2653"/><path d="M13.672 77.734h12.109v18.75H13.672z" fill="#443C81"/><path d="M100 96.484h17.578c-1.434 1.911-2.82 3.721-4.37 5.518a138 138 0 0 0-4.37 5.371 142 142 0 0 1-4.907 5.957l-.644.743a71 71 0 0 1-3.287 3.505zm0-60.937h17.578c-1.505 2.006-2.996 3.93-4.639 5.811a162 162 0 0 0-4.711 5.687c-1.159 1.439-2.362 2.839-3.562 4.243a58 58 0 0 0-3.447 4.457l-.438.505H100z" fill="#FE6327"/><path d="M99.219 57.422H100v20.313H82.812c2.639-3.518 2.639-3.518 3.618-4.704l.658-.798.68-.82.722-.875a455 455 0 0 1 4.871-5.782c1.558-1.832 3.032-3.727 4.479-5.647.442-.576.908-1.133 1.378-1.686m.001 60.936H100v20.313H82.812c1.439-1.92 2.859-3.78 4.419-5.591a312 312 0 0 0 4.828-5.805c1.219-1.48 2.466-2.936 3.712-4.393.954-1.124 1.857-2.258 2.69-3.475z" fill="#F9F8F7"/><path d="M174.219 21.484h12.109v14.063h-12.109z" fill="#2E2653"/><path d="M13.672 21.484h12.109v14.063H13.672z" fill="#443C81"/></svg>