<svg xmlns="http://www.w3.org/2000/svg" width="50" height="50" viewBox="0 0 50 50"><path d="m6.261 1.512.505-.001h1.383q.746.001 1.494-.001h6.33q3.222-.001 6.446.003 2.764.003 5.529 0a4179 4179 0 0 1 7.109-.001h.34l2.374-.001 2.893.001h1.475q.676-.001 1.351.001.244.001.488-.001c1.329-.007 2.393.176 3.388 1.125 1.076 1.127 1.131 2.323 1.125 3.797l.003.555v3.074q.001 1.321-.003 2.643-.003 1.525.001 3.05.003 1.313.001 2.625v1.565q.001.736-.003 1.471v.539c.006 1.385-.126 2.485-1.126 3.533-1.067 1.019-2.209 1.131-3.618 1.113l-.475-.001q-.619-.003-1.239-.01-.634-.005-1.269-.007a546 546 0 0 1-2.481-.019v-.781h-1.563l.011.739q.055 3.459.079 6.917.013 1.777.041 3.555.026 1.551.033 3.103a84 84 0 0 0 .02 1.64c.059 2.557-.009 4.449-1.762 6.425-.266.265-.361.276-.749.314-.32-.006-.395-.026-.665-.226-.816-1.054-.816-1.054-.816-1.373h-.195l-.076.213a4.3 4.3 0 0 1-.461.789l-.18.258c-.161.206-.161.206-.356.304-.69.068-.69.068-1.037-.189-.819-1.055-.819-1.055-.819-1.374h-.195l-.076.213a4.3 4.3 0 0 1-.461.789l-.18.258c-.161.206-.161.206-.356.304-.69.068-.69.068-1.037-.189-.819-1.055-.819-1.055-.819-1.374h-.195l-.076.213a4.3 4.3 0 0 1-.461.789l-.18.258c-.161.206-.161.206-.356.304-.69.068-.69.068-1.037-.189-.819-1.055-.819-1.055-.819-1.374h-.195l-.076.213a4.3 4.3 0 0 1-.461.789l-.18.258c-.161.206-.161.206-.356.304-.69.068-.69.068-1.037-.189-.819-1.055-.819-1.055-.819-1.374h-.195l-.076.213a4.3 4.3 0 0 1-.461.789l-.18.258c-.161.206-.161.206-.356.304-.69.068-.69.068-1.037-.189-.819-1.055-.819-1.055-.819-1.374h-.195l-.076.213a4.3 4.3 0 0 1-.461.789l-.18.258c-.161.206-.161.206-.356.304-.555.055-.555.055-.781 0a9 9 0 0 1-.489-.489l-.175-.177c-1.711-1.825-1.485-3.974-1.439-6.32q.011-.829.011-1.658.009-1.564.031-3.127.022-1.782.031-3.565.024-3.661.074-7.322h-1.563v.781q-1.366.014-2.732.02l-1.269.009q-.613.006-1.228.007l-.466.004c-1.33.021-2.39-.161-3.386-1.111-1.076-1.127-1.131-2.323-1.125-3.797l-.003-.555v-3.084q-.001-1.321.003-2.643.003-1.525-.001-3.05-.003-1.313-.001-2.625V8.18a214 214 0 0 1 .003-1.471V6.17c-.006-1.385.125-2.486 1.125-3.534 1.067-1.02 2.215-1.133 3.625-1.124" fill="#64C3E4"/><path d="m12.456 16.345.339-.003q.561-.001 1.123.001l.806-.003q.98-.003 1.959.001l1.821.001h.461q2.036 0 4.072.004 1.975.004 3.951.003a1845 1845 0 0 1 4.763 0h1.817q.969-.001 1.939.003.495.003.989.001.537 0 1.071.003l.316-.003c.691.007 1.037.11 1.534.603.396.505.443.799.445 1.429l.001.244.003.512q.001.389.007.779l.001.498.004.234c-.003.583-.1 1.06-.496 1.514l-.174.138-.174.143c-.295.2-.55.224-.895.221l-.251-.001-.261-.003-.264-.001-.645-.005.005.352q.059 4.16.085 8.321l.006 1.029.001.206q.013 1.649.037 3.296.025 1.698.03 3.393.003.95.02 1.901c.099 5.031.099 5.031-1.762 7.015-.301.281-.549.307-.96.299-.425-.07-.609-.414-.845-.742-.426-.614-.426-.614-.426-.851h-.195l-.076.213a4.3 4.3 0 0 1-.461.789l-.18.258c-.161.206-.161.206-.356.304-.69.068-.69.068-1.037-.189-.819-1.055-.819-1.055-.819-1.374h-.195l-.076.213a4.3 4.3 0 0 1-.461.789l-.18.258c-.161.206-.161.206-.356.304-.69.068-.69.068-1.037-.189-.819-1.055-.819-1.055-.819-1.374h-.195l-.076.213a4.3 4.3 0 0 1-.461.789l-.18.258c-.161.206-.161.206-.356.304-.69.068-.69.068-1.037-.189-.819-1.055-.819-1.055-.819-1.374h-.195l-.076.213a4.3 4.3 0 0 1-.461.789l-.18.258c-.161.206-.161.206-.356.304-.69.068-.69.068-1.037-.189-.819-1.055-.819-1.055-.819-1.374h-.195l-.076.213a4.3 4.3 0 0 1-.461.789l-.18.258c-.161.206-.161.206-.356.304-.69.068-.69.068-1.037-.189-.819-1.055-.819-1.055-.819-1.374h-.195l-.076.213a4.3 4.3 0 0 1-.461.789l-.18.258c-.161.206-.161.206-.356.304-.555.055-.555.055-.781 0a8 8 0 0 1-.34-.333 9 9 0 0 0-.323-.323c-1.481-1.479-1.455-3.162-1.46-5.136q.004-.912.021-1.825.011-.96.011-1.92.006-1.607.026-3.215.021-1.654.03-3.308l.001-.206.005-1.027q.024-4.245.074-8.489l-.17.006q-.385.013-.77.019l-.268.01c-.579.009-.887-.048-1.331-.425-.525-.521-.603-.911-.609-1.631l-.003-.256-.004-.54-.01-.821-.003-.525-.005-.246c.003-.545.084-.929.438-1.351.591-.517 1.149-.557 1.909-.55" fill="#F18C4D"/><path d="m12.456 16.345.339-.003q.561-.001 1.123.001l.806-.003q.98-.003 1.959.001l1.821.001h.461q2.036 0 4.072.004 1.975.004 3.951.003a1845 1845 0 0 1 4.763 0h1.817q.969-.001 1.939.003.495.003.989.001.537 0 1.071.003l.316-.003c.691.007 1.037.11 1.534.603.396.505.443.799.445 1.429l.001.244.003.512q.001.389.007.779l.001.498.004.234c-.003.583-.1 1.06-.496 1.514l-.174.138-.174.143c-.295.2-.55.224-.895.221l-.251-.001-.261-.003-.264-.001-.645-.005.005.352q.059 4.16.085 8.321l.006 1.029.001.206q.013 1.649.037 3.296.025 1.698.03 3.393.003.95.02 1.901c.099 5.031.099 5.031-1.762 7.015-.301.281-.549.307-.96.299-.425-.07-.609-.414-.845-.742-.426-.614-.426-.614-.426-.851h-.195l-.076.213a4.3 4.3 0 0 1-.461.789l-.18.258c-.161.206-.161.206-.356.304-.69.068-.69.068-1.037-.189-.819-1.055-.819-1.055-.819-1.374h-.195l-.076.213a4.3 4.3 0 0 1-.461.789l-.18.258c-.161.206-.161.206-.356.304-.69.068-.69.068-1.037-.189-.819-1.055-.819-1.055-.819-1.374h-.195l-.076.213a4.3 4.3 0 0 1-.461.789l-.18.258c-.161.206-.161.206-.356.304-.69.068-.69.068-1.037-.189-.819-1.055-.819-1.055-.819-1.374h-.195l-.076.213a4.3 4.3 0 0 1-.461.789l-.18.258c-.161.206-.161.206-.356.304-.69.068-.69.068-1.037-.189-.819-1.055-.819-1.055-.819-1.374h-.195l-.076.213a4.3 4.3 0 0 1-.461.789l-.18.258c-.161.206-.161.206-.356.304-.69.068-.69.068-1.037-.189-.819-1.055-.819-1.055-.819-1.374h-.195l-.076.213a4.3 4.3 0 0 1-.461.789l-.18.258c-.161.206-.161.206-.356.304-.555.055-.555.055-.781 0a8 8 0 0 1-.34-.333 9 9 0 0 0-.323-.323c-1.481-1.479-1.455-3.162-1.46-5.136q.004-.912.021-1.825.011-.96.011-1.92.006-1.607.026-3.215.021-1.654.03-3.308l.001-.206.005-1.027q.024-4.245.074-8.489l-.17.006q-.385.013-.77.019l-.268.01c-.579.009-.887-.048-1.331-.425-.525-.521-.603-.911-.609-1.631l-.003-.256-.004-.54-.01-.821-.003-.525-.005-.246c.003-.545.084-.929.438-1.351.591-.517 1.149-.557 1.909-.55m2.387 3.967c-.02 4.382-.02 4.382-.034 8.765l-.005 1.999q-.005 1.792-.015 3.585a901 901 0 0 0-.011 3.681q-.001 1.135-.009 2.27-.006.871-.004 1.744 0 .356-.004.714c-.055 1.581-.055 1.581.599 2.971.152.173.152.173.361.151a14 14 0 0 0 .434-.671c.406-.67.406-.67.739-.891.361.014.597.025.879.264.289.331.499.703.725 1.077l.154.22h.195a14 14 0 0 0 .434-.671c.406-.67.406-.67.739-.891.361.014.597.025.879.264.289.331.499.703.725 1.077l.154.221h.195a14 14 0 0 0 .434-.671c.406-.67.406-.67.739-.891.361.014.597.025.879.264.289.331.499.703.725 1.077l.154.221h.195a14 14 0 0 0 .434-.671c.406-.67.406-.67.739-.891.361.014.597.025.879.264.289.331.499.703.725 1.077l.154.221h.195a14 14 0 0 0 .434-.671c.406-.67.406-.67.739-.891.361.014.597.025.879.264.289.331.499.703.725 1.077l.154.221h.195q.254-.356.489-.726l.263-.409.117-.185c.107-.145.107-.145.304-.242.362-.049.526-.044.824.177.314.35.542.766.782 1.167l.151.217c.209.022.209.022.361-.151.762-.984.609-2.138.595-3.322v-.734q0-.787-.006-1.575a369 369 0 0 1-.009-2.276 913 913 0 0 0-.013-3.695q-.01-1.794-.014-3.588v-.226l-.004-1.75q-.013-4.281-.033-8.564z"/><path d="m6.261 1.512.505-.001h1.383q.746.001 1.494-.001h6.33q3.222-.001 6.446.003 2.764.003 5.529 0a4179 4179 0 0 1 7.109-.001h.34l2.374-.001 2.893.001h1.475q.676-.001 1.351.001.244.001.488-.001c1.329-.007 2.393.176 3.388 1.125 1.076 1.127 1.131 2.323 1.125 3.797l.003.555v3.074q.001 1.321-.003 2.643-.003 1.525.001 3.05.003 1.313.001 2.625v1.565q.001.736-.003 1.471v.539c.006 1.385-.126 2.485-1.126 3.533-1.067 1.019-2.209 1.131-3.618 1.113l-.475-.001q-.619-.003-1.239-.01-.634-.005-1.269-.007a526 526 0 0 1-2.481-.019V25l.605-.003q.994-.006 1.985-.015.603-.006 1.202-.009.581-.003 1.163-.01l.441-.003c.921-.001 1.713-.031 2.449-.639l.156-.19.161-.189c.316-.493.361-.986.359-1.559l.001-.226.001-.746.003-.536.003-1.455.001-.909.003-3.172.005-2.956q.004-1.27.004-2.54 0-.757.003-1.516.003-.712 0-1.426l.001-.522q.001-.357-.001-.715l.004-.208c-.009-.619-.232-1.109-.627-1.576l-.188-.16-.185-.164c-.501-.316-1.035-.361-1.615-.361l-.206-.001h-.684l-.495-.001-1.36-.001-1.467-.003-2.875-.003-2.336-.001-6.984-.003h-.361q-2.897 0-5.795-.005-2.975-.004-5.95-.004-1.67 0-3.341-.003l-2.844-.001q-.725.003-1.451-.001-.664-.003-1.329 0l-.48-.001c-.925-.006-1.646-.005-2.374.633l-.16.193-.164.193c-.35.509-.369.975-.378 1.574l-.006.254q-.009.4-.015.8l-.011.544-.025 1.333.195-.098c.859-.083 1.5.061 2.172.604.481.409.727.879.794 1.501.02.434.018.866.015 1.3l.001.483q.001.505-.003 1.009-.004.644.001 1.288v.996l.001.475c.004.961-.011 1.781-.65 2.554-.69.59-1.221.75-2.124.742-.209-.014-.209-.014-.404-.111q.006.769.02 1.538l.006.522c-.014 1.48-.014 1.48.654 2.759l.193.156.191.161c.451.304.838.359 1.376.364l.203.003.657.006.458.006 1.201.013 1.228.014q1.202.014 2.406.025v1.563q-1.368.014-2.732.02l-1.269.009q-.613.006-1.228.007l-.466.004c-1.33.019-2.39-.164-3.386-1.114-1.076-1.127-1.131-2.323-1.125-3.797l-.003-.555v-3.075q-.001-1.321.003-2.643.003-1.525-.001-3.05-.003-1.313-.001-2.625V8.18a214 214 0 0 1 .003-1.471V6.17c-.006-1.385.125-2.486 1.125-3.534 1.067-1.02 2.215-1.133 3.625-1.124"/><path d="m29.741 22.658.239.194.209.161c1.444 1.167 2.405 3.091 2.624 4.918.151 2.199-.352 4.223-1.757 5.957l-.161.209c-1.139 1.407-2.8 2.143-4.526 2.525l-.232.056c-1.989.318-3.955-.194-5.606-1.316a13 13 0 0 1-.606-.499l-.299-.226a7.88 7.88 0 0 1-2.455-4.985c-.086-2.151.4-4.045 1.777-5.726l.16-.209c2.542-3.147 7.514-3.484 10.635-1.06" fill="#E07032"/><path d="m30.62 3.877.25.003.259.007.263.004.64.014v1.563h-1.074l-.043.281c-.055.306-.055.306-.154.501l.199-.005q.446-.009.894-.014l.313-.007.302-.003.278-.005c.314.04.495.143.75.326.352.704.033 1.856-.045 2.625l-.045.45-.094.939-.119 1.196-.092.927-.044.441c-.163 1.66-.163 1.66-.343 2.211-.371.293-.661.33-1.126.33l-.19.001q-.314.001-.629-.001l-.451.001h-2.506q-1.076.001-2.151-.001h-2.487q-1.069.003-2.136.001h-1.276q-.6.001-1.199-.001h-.44q-.3.001-.6-.001h-.34c-.318-.041-.45-.106-.676-.33-.106-.268-.106-.268-.186-.595l-.094-.371-.096-.401-.103-.411-.266-1.083-.325-1.315q-.128-.511-.253-1.024l-.091-.37-.08-.328c-.059-.251-.059-.251-.166-.45-.048-.424-.046-.617.201-.97.352-.247.55-.217.97-.201l-.1-.237-.364-.872-.159-.378-.226-.544-.138-.33c-.09-.275-.09-.275.007-.569.259-.135.259-.135.58-.263l.32-.13c.273-.095.273-.095.468-.095l.664 1.656.242.605.076.19q.155.383.288.772a23 23 0 0 0-.431-2.277c-.057-.263-.057-.263-.057-.556l.396-.098.224-.055c.316-.053.623-.045.943-.043q.126.57.25 1.141l.085.388.122.559.075.339c.048.274.065.517.054.795h.391l.011-.163c.064-.774.219-1.521.38-2.279l.506.043.285.024c.261.029.514.073.771.129l-.043.31-.055.404-.029.204a6 6 0 0 0-.069.84l.976-2.441c.375.075.66.156 1.008.299l.261.107.195.084c-.059.564-.27 1.036-.494 1.55l-.111.26-.274.631.185.016.241.022.24.022c.213.036.213.036.414.195.126.321.122.574.091.915l-.195.391h1.954l-.098-.769c-.117-1.004-.117-1.004-.14-1.452l-.013-.213c.089-.33.285-.476.542-.691.315-.065.315-.065.667-.069l.383-.009.398-.001.403-.007a78 78 0 0 1 .981-.011l.056-.175q.128-.393.261-.784l.089-.275.09-.264.08-.244c.211-.42.485-.544.941-.534" fill="#010101"/><path d="M39.844 3.125q1.06-.011 2.121-.016l.721-.006q.52-.005 1.039-.006l.323-.005c.715 0 1.37.066 1.975.476l.151.161.155.156c.41.564.606 1.074.597 1.777l.001.226q.001.372-.001.744l.003.536v2.973q.001 1.278-.003 2.554-.003 1.475.001 2.949.003 1.268.001 2.536v1.512q.001.711-.003 1.422v.521c.005.981-.015 1.786-.603 2.611l-.158.154-.154.158c-.782.544-1.633.479-2.544.469l-.45-.001-1.177-.007-1.204-.006L38.279 25v.781h-1.563v-3.125c.891-.03.891-.03 1.169-.037.564-.025.998-.107 1.434-.496.435-.549.443-.979.449-1.663l.003-.244.004-.51q.001-.26.006-.52.006-.378.006-.752l.005-.232c-.003-.514-.1-.799-.438-1.208-.424-.374-.675-.498-1.232-.544l-.296-.025-.23-.019.07-.169c1.454-3.546 2.087-6.964 2.14-10.781l.011-.681z" fill="#56B3DC"/><path d="M14.844 20.313h13.281v1.368l-.354-.079-.246-.053q-.29-.065-.576-.141c-2.02-.5-4.024-.225-5.855.761-.38.237-.729.498-1.074.781l-.211.164c-1.399 1.133-2.311 3.049-2.524 4.816-.168 2.249.378 4.321 1.855 6.055l.189.245c.943 1.136 2.406 1.851 3.816 2.196l.195.051c.587.145 1.16.185 1.764.205l.284.011q.343.014.686.025l-.25.341-.141.193-.194.247-.106.199c-.199.31-.385.536-.757.625-.573.07-1.149.046-1.724.034l-.563-.004q-.737-.006-1.474-.019a201 201 0 0 0-1.506-.015 378 378 0 0 1-2.953-.039v1.563h6.152c-.839.839-2.185 1.15-3.32 1.368l-.346.066c-1.356.211-2.654.129-4.049.129z" fill="#F69A68"/><path d="m29.741 22.658.239.194.209.161c1.444 1.167 2.405 3.091 2.624 4.918.151 2.199-.352 4.223-1.757 5.957l-.161.209c-1.139 1.407-2.8 2.143-4.526 2.525l-.232.056c-1.989.318-3.955-.194-5.606-1.316a13 13 0 0 1-.606-.499l-.299-.226a7.88 7.88 0 0 1-2.455-4.985c-.086-2.151.4-4.045 1.777-5.726l.16-.209c2.542-3.147 7.514-3.484 10.635-1.06m-9.595 2.232c-1.093 1.345-1.529 2.953-1.421 4.659.171 1.616.963 3.075 2.174 4.145 1.49 1.188 3.191 1.656 5.079 1.465 1.651-.324 3.191-1.224 4.164-2.616.965-1.558 1.344-3.175 1.049-4.984a6.75 6.75 0 0 0-3.068-4.12 11 11 0 0 0-1.172-.489l-.222-.095c-2.364-.897-4.982.284-6.584 2.034" fill="#030101"/><path d="M24.219 23.438h1.563V25l.725-.019a1.16 1.16 0 0 1 .643.214c.205.307.219.378.214.727l-.003.251-.005.261-.003.264-.01.645H25.78v-.781h-1.563v1.563l.541-.006.704-.005.357-.005.344-.003.316-.004c.281.022.435.061.667.217.247.371.224.669.221 1.099v.239l-.001.5q-.001.383.001.765l-.001.486.001.231c-.006.671-.006.671-.222.979-.299.206-.546.217-.904.208l-.461-.014v1.563h-1.563v-1.563l-.512.019c-.323.011-.505.015-.786-.147-.204-.201-.259-.366-.275-.651l.001-.219.001-.237.003-.246.001-.25.005-.61h1.563v.781h1.563v-1.563l-.563.01-.731.007-.371.007-.356.003-.329.005c-.32-.037-.451-.1-.677-.326-.191-.574-.128-1.23-.131-1.833l-.007-.51a46 46 0 0 1-.009-.736l-.006-.229c.001-.396.04-.576.288-.891.435-.329.802-.227 1.333-.195z"/><path d="M11.719 17.969h26.563v3.125h-1.563l-.015-.395-.022-.514-.009-.261-.011-.251-.009-.231c-.021-.232-.021-.232-.226-.496-.391-.13-.767-.112-1.175-.112l-.276-.001-.921-.001-.659-.003-1.794-.004-1.12-.001-3.902-.004h-.201l-3.24-.006q-1.663-.005-3.325-.005l-1.867-.004q-.877-.004-1.756-.001l-.645-.003h-.879l-.26-.004c-.475.004-.475.004-.882.236-.164.236-.195.365-.203.65l-.01.25-.004.259-.009.263-.016.64H11.72z" fill="#DADADA"/><path d="M27.441 7.813h4.492a208 208 0 0 1-.586 6.25h-2.149c.281-1.05.281-1.05.391-1.27-.037-.726-.23-1.361-.47-2.045l-.101-.307-.101-.294-.091-.265c-.136-.255-.237-.314-.505-.41-.26-.05-.517-.071-.781-.098-.092-.541-.098-.999-.098-1.563" fill="#0583CA"/><path d="M16.601 9.375h4.98l-.391.489c-.17.374-.293.764-.421 1.154l-.11.313c-.362 1.085-.174 1.584.14 2.734h-3.028a106 106 0 0 1-.86-3.222l-.092-.369-.086-.345-.077-.31c-.054-.247-.054-.247-.054-.443" fill="#D54758"/><path d="M16.406 41.406h10.156v1.563H16.406zm0-3.125h10.156v1.563H16.406z"/><path d="M3.906 10.095c.396.083.527.237.781.549.061.311.061.311.06.666l.001.198q0 .32-.004.641v.448q0 .469-.005.936-.005.6-.004 1.199l-.003.924-.001.443-.005.619-.003.355a1.46 1.46 0 0 1-.331.8c-.275.138-.478.122-.781.098-.306-.174-.375-.246-.489-.586a16 16 0 0 1-.019-.644l-.003-.198-.005-.645-.001-.222-.006-1.166-.007-.965a90 90 0 0 1-.007-1.165l-.005-.444a34 34 0 0 1-.003-.621l-.003-.356c.092-.488.354-.76.841-.862" fill="#D9D9D9"/><path d="M27.441 7.813h3.516c0 1.431-.086 2.729-1.081 3.839-.189.165-.189.165-.384.165l-.065-.194-.301-.867-.103-.305-.103-.291-.092-.27c-.138-.259-.235-.318-.506-.415-.26-.05-.517-.071-.781-.098-.092-.541-.098-.999-.098-1.563" fill="#1798D1"/><path d="M20.508 9.375h1.074l-.169.173c-.319.455-.469.945-.643 1.47l-.11.313c-.362 1.085-.174 1.584.14 2.734h-3.028l-.293-1.172.489-.098c1.222-.597 1.893-1.536 2.334-2.789a34 34 0 0 0 .205-.63" fill="#CE2F3C"/><path d="M6.445 3.125h8.985c-.574.689-.574.689-.879.781-.309.025-.309.025-.679.026l-.205.001-.669.001-.466.001h-.978l-1.249.004-.964.001-.46.001H7.866a2.5 2.5 0 0 1-1.031-.329z" fill="#7DD5EC"/><path d="M14.844 20.605c.391.196.599.334.739.751.056.304.056.596.059.905l.003.205.004.67.001.231.004 1.214q.003.626.009 1.251.004.481.004.965l.004.461q.004.324.001.646l.001.371c-.057.403-.184.606-.439.921l-.391.293z" fill="#FBAD8A"/><path d="M29.688 41.406h3.906v1.563h-3.906zm0-3.125h3.906v1.563h-3.906z"/><path d="M22.364 10.938h5.274l.195.781h-5.664z" fill="#EF9F58"/><path d="M22.168 13.281h5.664l-.293.781H22.46z" fill="#E47F24"/><path d="M18.164 3.125h4.298c-.629.754-.629.754-1.127.807q-.453.005-.905.004l-.316.005c-.594 0-1.044-.02-1.558-.329z" fill="#7DD5EC"/><path d="M14.844 30.761c.389.195.596.331.739.746.061.333.069.663.074 1l.009.205c.006.509-.107.786-.43 1.174l-.391.293z" fill="#FBAD8A"/><path d="m26.587 10.913.305.005q.372.007.745.019l.195.781H24.61l.489-.391.158-.219c.398-.294.854-.213 1.333-.198" fill="#ED9131"/></svg>