<svg version="1.0" xmlns="http://www.w3.org/2000/svg" viewBox="0 0 100 100" width="100" height="100"><path d="M7.285 11.72c-.84.35-2.245 2.83-3.065 5.467-1.407 4.415-.645 8.165 2.325 11.523 1.505 1.7 2.167 2.97 2.46 4.63.37 2.147-.293 4.883-1.855 7.52-.897 1.485-.978 1.797-.625 2.46.333.645.665.82 1.505.82.82 0 1.407-.703 2.52-3.028 1.328-2.772 1.64-4.063 1.64-6.64-.02-3.182-.665-4.728-3.202-7.755-1.817-2.13-2.228-3.182-2.228-5.625.02-2.208.43-3.613 1.757-5.897.47-.84.86-1.757.86-2.09a1.518 1.518 0 0 0-2.09-1.388m16.738.057c-1.192.605-2.735 3.807-2.735 5.683 0 1.757.84 3.633 2.362 5.293 1.737 1.875 1.757 3.827.077 6.035-.665.88-.665 1.895.02 2.442.978.762 1.875.39 2.988-1.21 2.05-3.008 1.797-6.543-.665-9.317-1.192-1.348-1.737-2.54-1.603-3.555.117-.84.762-2.188 1.368-2.853 1.172-1.27-.293-3.3-1.817-2.52m50.585 0c-.995.488-1.172 1.72-.39 2.577.568.625 1.192 1.973 1.308 2.792.138 1.015-.41 2.208-1.603 3.555-2.402 2.715-2.715 6.055-.84 9.023 1.172 1.855 2.285 2.345 3.182 1.425.645-.625.645-1.522 0-2.362-.742-.978-1.27-2.228-1.27-3.068 0-1.035.43-1.973 1.485-3.125 1.953-2.167 2.617-4.647 1.875-7.11-.625-2.032-2.167-3.985-3.125-3.965-.077 0-.352.117-.625.255m16.855-.057c-.508.215-.84.782-.84 1.465 0 .273.39 1.172.86 2.013 1.29 2.228 1.777 3.867 1.757 5.995 0 2.382-.43 3.417-2.345 5.665-3.008 3.575-3.79 6.777-2.715 11.055.37 1.505 2.013 4.942 2.715 5.683.782.88 2.05.742 2.577-.273.352-.665.273-.978-.625-2.46-1.563-2.637-2.228-5.37-1.855-7.52.293-1.66.958-2.93 2.46-4.63 1.485-1.66 2.5-3.613 2.853-5.43.488-2.54-.195-6.152-1.7-9.043-1.172-2.245-2.07-2.97-3.145-2.52M45.575 21.4c-2.02.73-3.388 2.72-3.388 4.968.02 1.953.43 2.637 3.438 5.683l2.657 2.675-1.64.138c-5.547.45-10.508 1.72-15.665 4.022-2.772 1.23-3.32 1.66-3.32 2.577 0 .39.158.88.352 1.095.665.742 1.192.683 3.32-.333 6.192-2.988 11.66-4.22 18.672-4.22 7.168 0 12.755 1.29 18.985 4.375 11.387 5.645 19.96 16.582 22.617 28.807.41 1.933.978 5.978.978 7.05v.665H7.362l.138-1.7c.958-11.798 6.777-22.735 15.938-29.98.8-.645 1.583-1.308 1.72-1.485.665-.86-.158-2.382-1.308-2.382-1.505 0-7.305 5.43-10.8 10.157-3.673 4.923-6.445 11.095-7.853 17.48-.39 1.777-.897 5.703-.897 6.953v.958H2.835c-.8 0-1.66.098-1.933.215-.683.313-.978 1.153-.82 2.345A8.1 8.1 0 0 0 6.41 88.26c1.465.313 85.703.313 87.188 0 1.68-.352 3.008-1.113 4.258-2.442 1.27-1.368 1.895-2.735 2.09-4.57.098-1.095.077-1.172-.488-1.737s-.683-.605-2.147-.605h-1.542l-.138-2.013c-.508-7.382-3.202-15.235-7.442-21.602-7.87-11.855-20.47-19.258-34.825-20.43l-1.64-.138 2.657-2.675c3.008-3.048 3.417-3.73 3.438-5.683a5.205 5.205 0 0 0-6.933-4.98c-.782.273-.978.273-1.757 0a5.75 5.75 0 0 0-3.535.02m3.262 3.417c.8.568 1.522.547 2.345-.04a2.55 2.55 0 0 1 1.505-.47c1.153 0 1.993.88 1.993 2.09 0 .782-.098.917-2.345 3.165l-2.345 2.362-2.345-2.362c-2.228-2.228-2.345-2.402-2.345-3.145 0-1.895 1.915-2.755 3.535-1.603m47.633 57.347c0 .098-.195.488-.45.88-.47.782-1.015 1.27-2.09 1.835-.665.352-1.875.37-43.945.37H6.737l-.782-.43a9 9 0 0 1-1.192-.782c-.508-.43-1.25-1.505-1.25-1.797 0-.158 12.93-.215 46.485-.215 25.568 0 46.485.057 46.485.138"/></svg>