<svg xmlns="http://www.w3.org/2000/svg" width="100" height="100" viewBox="0 0 100 100"><path d="m78.409 7.111.636.277a257 257 0 0 1 2.059.913l1.443.633q1.125.492 2.25.988a328 328 0 0 0 5.027 2.168l1.139.481c1.457.616 1.457.616 2.915 1.229a444 444 0 0 1 2.008.85l.595.247c2.951 1.264 2.951 1.264 3.519 2.681.049.553.049.553.05 1.208l.004.756-.002.832.003.883.002 2.43q0 1.31.004 2.619.004 2.567.004 5.133l.002 4.172q.005 5.913.005 11.827v1.289q0 5.173.009 10.348.008 5.312.008 10.623 0 2.983.005 5.965.006 2.54.002 5.079-.002 1.296.002 2.591.005 1.187-.001 2.373-.001.429.002.857c.011 1.593-.057 2.87-.881 4.257l-.224.386c-.818 1.346-2.195 2.128-3.681 2.544-.525.036-1.03.053-1.555.05l-.466.002a267 267 0 0 1-1.549 0l-1.121.003q-1.54.002-3.082.002-1.662 0-3.323.004-3.255.004-6.511.004-2.646 0-5.291.002a17036 17036 0 0 1-14.997.005h-1.226q-6.359 0-12.718.008-7.144.009-14.289.009-3.783-.001-7.565.005-3.22.006-6.441.002a900 900 0 0 0-3.287.002 466 466 0 0 1-3.009-.001q-.544-.001-1.088.002c-3.459.02-3.459.02-4.865-.88l-.383-.224C1.213 91.94.384 90.544 0 89.063c-.059-.794-.054-1.587-.052-2.383l-.003-.734q-.003-1.006-.002-2.013 0-1.086-.004-2.172-.004-2.127-.004-4.255l-.002-3.459q-.005-4.904-.005-9.809v-1.069q0-4.289-.009-8.578-.008-4.406-.008-8.811 0-2.472-.005-4.946-.005-2.105-.002-4.211.002-1.074-.002-2.147-.004-1.166.002-2.33l-.006-.682c.015-1.865.556-3.525 1.86-4.901 1.525-1.225 2.861-1.622 4.791-1.609l.564-.001q.933 0 1.868.004h1.34q1.818 0 3.636.005 1.9.004 3.801.003 3.189.002 6.379.007l6.569.008h.409l2.032.001q8.427.006 16.854.02l-.012-.663q-.02-1.221-.031-2.444-.006-.528-.016-1.056a127 127 0 0 1-.017-1.521l-.012-.474c0-1.036.19-1.609.87-2.436 1.033-.886 2.396-1.372 3.638-1.89l.613-.26q.999-.422 1.999-.841l3.219-1.357a346 346 0 0 0 5.31-2.293q1.115-.491 2.232-.979.895-.392 1.786-.79a230 230 0 0 1 1.999-.88l.587-.268c2.268-.974 4.039-.744 6.244.261" fill="#2196F3"/><path d="m78.409 7.111.636.277a257 257 0 0 1 2.059.913l1.443.633q1.125.492 2.25.988a328 328 0 0 0 5.027 2.168l1.139.481c1.457.616 1.457.616 2.915 1.229a444 444 0 0 1 2.008.85l.595.247c1.229.526 2.562 1.107 3.362 2.228.231.67.211 1.33.207 2.03l.002.481q.002.79-.001 1.577l.001 1.107q.001 1.164-.002 2.329-.002 1.473.001 2.946c.02 10.133.02 10.133-1.029 14.201l-.207.867c-1.098 4.504-2.895 8.805-5.848 12.414l-.377.496a37 37 0 0 1-7.297 7.071 72 72 0 0 0-1.024.771c-7.199 5.445-7.199 5.445-9.742 5.411-.976-.148-1.747-.691-2.569-1.212l-.569-.349a74 74 0 0 1-7.329-5.156l-.605-.483c-5.967-4.86-9.851-10.731-12.088-18.071l-.126-.406c-1.536-5.065-1.34-10.477-1.328-15.709q.002-1.538-.007-3.076-.005-1.194-.002-2.39 0-.568-.004-1.135-.004-.789.003-1.576l-.006-.467c.014-1.012.215-1.588.885-2.389 1.033-.886 2.396-1.372 3.638-1.89l.613-.26q.999-.422 1.999-.841l3.219-1.357a346 346 0 0 0 5.31-2.293q1.115-.491 2.232-.979.895-.392 1.786-.79a230 230 0 0 1 1.999-.88l.587-.268c2.268-.974 4.039-.744 6.244.261" fill="#009688"/><path d="m6.311 24.953.486-.001q.804 0 1.609.004h1.155q1.566 0 3.133.005 1.637.004 3.275.003 3.1.002 6.201.008 3.53.006 7.059.008 7.261.006 14.521.02l.005.368q.027 1.924.059 3.848l.021 1.429c.068 4.936.395 9.691 1.673 14.473l.129.498c.925 3.521 2.448 6.733 4.186 9.918a25 25 0 0 1 .372.716H0l-.049-13.171-.021-4.154c-.004-1.678-.004-1.678-.004-2.465a254 254 0 0 0-.008-1.642q-.008-1.05-.006-2.1a103 103 0 0 0-.009-1.128c.006-1.398.175-2.444.878-3.66l.224-.387c1.157-1.896 3.182-2.606 5.306-2.59" fill="#455A64"/><path d="M43.75 25H50l.022 2.086.029 2.058.016 1.402c.043 4.369.203 8.804 1.495 13.009l.153.52c1.203 4.044 2.914 7.671 5.511 11.004l.396.527c1.887 2.423 4.166 4.681 6.635 6.504l.696.537a65 65 0 0 0 5.324 3.689 84 84 0 0 1 .866.549 102 102 0 0 0 1.317.828l.396.257c.97.588 1.796.807 2.924.585.692-.261 1.317-.601 1.953-.977l.458-.269a60 60 0 0 0 1.348-.842l.486-.31c3.295-2.114 6.405-4.465 9.233-7.173l.297-.281c2.117-2.011 3.894-4.221 5.367-6.75l.223-.379c3.021-5.214 4.338-11.032 4.66-17.004H100q.069 4.131.101 8.262.014 1.919.046 3.837.031 1.854.038 3.708.005.705.021 1.409c.064 2.95-.089 4.826-2.16 7.002a86 86 0 0 0-.842 1.074c-1.543 1.851-3.161 3.637-5.016 5.177l-.579.513c-2.785 2.46-5.835 4.566-8.992 6.518l-.465.289c-3.008 1.852-5.576 3.051-9.211 2.576-4.443-1.061-9.317-5.08-12.785-7.943l-.305-.25c-2.176-1.787-4.341-3.631-6.14-5.804l-.504-.578c-3.686-4.231-6.047-9.138-7.699-14.462l-.195-.622c-1.454-4.969-1.656-10.281-1.599-15.418l.008-1.427q.01-1.716.029-3.432" fill="#F8F9F9"/><path d="m6.311 24.953.486-.001q.804 0 1.609.004h1.155q1.566 0 3.133.005 1.637.004 3.275.003 3.1.002 6.201.008 3.53.006 7.059.008 7.26.006 14.521.02l.195 12.5H0c0-9.082 0-9.082 1.758-10.938 1.43-1.15 2.711-1.624 4.554-1.609" fill="#2196F3"/><path d="M84.424 24.927c1.217.122 1.982.698 2.783 1.599.357.758.445 1.371.293 2.185-.442 1.172-1.164 2.105-1.965 3.052l-.684.826-.344.413c-.478.58-.94 1.171-1.401 1.764a198 198 0 0 1-2.669 3.328 157 157 0 0 0-2.019 2.531 225 225 0 0 1-3.331 4.148l-.555.683c-.672.826-1.213 1.297-2.286 1.495-1.091.084-1.67-.21-2.51-.875-.71-.662-1.22-1.441-1.75-2.249l-.366-.545a209 209 0 0 1-.757-1.138 275 275 0 0 0-1.15-1.723l-.742-1.111-.342-.512c-2.374-3.599-2.374-3.599-2.129-5.204.363-1.029.899-1.522 1.758-2.148 1.04-.347 1.844-.318 2.844.086 1.522.983 2.51 2.916 3.491 4.395l.376.559.355.533.321.48c.23.392.23.392.23.782.786-.578 1.369-1.229 1.953-2.002l.568-.736.298-.386c.515-.66 1.046-1.307 1.575-1.954a195 195 0 0 0 2.368-2.954l.262-.333a191 191 0 0 0 1.358-1.753l.287-.372q.269-.349.534-.7c.629-.814 1.339-1.648 2.308-2.054q.519-.048 1.038-.11" fill="#F7F9F8"/><path d="m16.183 68.719.41-.003q.671-.004 1.343-.005l.935-.003q.98-.003 1.961-.004 1.254-.002 2.508-.011.966-.005 1.932-.005.462-.001.924-.005.648-.004 1.296-.002l.744-.002c.863.092 1.52.363 2.164.951.773.993.979 1.778.851 3.027-.363 1.029-.899 1.522-1.758 2.148-.678.226-1.21.223-1.925.227l-.41.003q-.672.004-1.343.005l-.935.003q-.98.003-1.961.004-1.254.003-2.508.011-.966.006-1.932.005-.462.001-.924.005-.648.004-1.296.002l-.744.002c-.863-.092-1.52-.363-2.164-.951-.773-.993-.979-1.778-.851-3.027.363-1.029.899-1.522 1.758-2.148.678-.226 1.21-.223 1.925-.227" fill="#F8F9F9"/></svg>