<svg xmlns="http://www.w3.org/2000/svg" width="200" height="200" viewBox="0 0 200 200"><path d="M102.321 13.429c8.422 7.125 13.722 16.646 15.257 27.587.083 1.425.073 2.841.052 4.268q0 1.191.003 2.383a268 268 0 0 1-.024 3.7 191 191 0 0 0-.004 3.609l-.03 1.113c.02 1.995.02 1.995 1.069 3.619.813.624.813.624 1.655 1.122 2.752 1.724 4.092 4.718 4.994 7.725.458 4.58-.47 8.301-3.418 11.914-2.707 2.914-5.861 4.049-9.766 4.297l.055.792c.304 8.088-3.038 15.554-7.867 21.864l-.594.798c-2.698 3.398-6.566 6.115-10.344 8.186h-.781v7.031l3.027-.027q1.485-.009 2.971-.016 1.016-.006 2.032-.016c5.593-.055 11.27-.044 16.604 1.865l.872.3c3.411 1.225 6.637 2.915 9.65 4.924l.017-.833c.242-10.5 1.168-19.801 9.007-27.57 5.402-5.063 12.696-7.388 20.015-7.236 6.848.446 13.084 2.874 17.836 7.905l.906.871c1.832 1.854 3.141 3.805 4.318 6.111l.381.738c2.53 5.249 2.351 10.514 2.28 16.205q-.009 1.238-.016 2.477-.02 3.01-.057 6.02l.88-.022 1.162-.018 1.148-.022c2.274.127 3.721 1.137 5.33 2.674 1.966 2.977 2.198 5.886 2.178 9.384l.006 1.347q.006 2.191-.002 4.381l.004 3.06q.002 3.202-.007 6.403-.008 3.689.002 7.379.008 3.564.002 7.129-.002 1.509.003 3.02.003 2.114-.008 4.227l.007 1.251c-.026 3.061-.483 5.555-2.185 8.133-3.242 3.098-6.686 2.835-10.886 2.811l-2.057.007c-1.881.007-3.762.003-5.644-.002-2.03-.004-4.06.002-6.09.006q-5.965.009-11.929.001-4.849-.005-9.697-.002l-1.395.001-2.804.002q-13.148.004-26.297-.009-11.277-.01-22.555.001a17379 17379 0 0 1-28.99.005l-1.389-.001q-4.841-.001-9.681.005a3658 3658 0 0 1-11.805-.005q-3.01-.007-6.021 0-2.759.007-5.517-.006a238 238 0 0 0-1.99.003c-5.456.029-9.963-.633-14.085-4.501l-.755-.707c-3.671-3.798-4.377-8.508-4.402-13.579l-.006-1.086q-.005-1.137-.008-2.275a426 426 0 0 0-.029-3.391c-.079-13.787 3.386-25.537 13.135-35.506 8.388-8.289 19.218-11.91 30.852-11.891q1.492.01 2.986.026l2.065.011q2.495.014 4.99.038v-6.641l-2.344-.781c-8.56-4.83-14.379-12.617-17.009-21.984-.631-2.353-1.009-4.409-.984-6.85l.011-1.375.014-1.04-1.538-.098c-3.886-.451-6.621-2.39-9.206-5.237-2.343-2.965-2.917-6.602-2.537-10.29.571-3.211 2.009-5.525 4.297-7.813.121-.842.121-.842.106-1.824l.012-1.152.003-1.252.03-2.636q.016-2.074.028-4.147c.063-9.89.063-9.89 1.383-14.77l.223-.886c2.893-10.86 10.424-19.73 19.975-25.378 3.288-1.868 6.621-3.188 10.271-4.205l1.3-.379c12.954-3.194 27.105.347 37.349 8.73m39.152 98.367c-5.134 7.224-3.192 14.205-3.192 23.36h34.375c.922-14.202.922-14.202-5.029-25.512-3.557-3.348-7.882-5.117-12.809-5.042-5.563.521-9.791 2.92-13.345 7.195" fill="#5BC557"/><path d="M102.321 13.429c8.422 7.125 13.722 16.646 15.257 27.587.083 1.425.073 2.841.052 4.268q0 1.191.003 2.383a268 268 0 0 1-.024 3.7 191 191 0 0 0-.004 3.609l-.03 1.113c.02 1.995.02 1.995 1.069 3.619.813.624.813.624 1.655 1.122 2.752 1.724 4.092 4.718 4.994 7.725.458 4.58-.47 8.301-3.418 11.914-2.707 2.914-5.861 4.049-9.766 4.297l.055.792c.304 8.088-3.038 15.554-7.867 21.864l-.594.798c-2.698 3.398-6.566 6.115-10.344 8.186h-.781l.025.887c.33 13.586.33 13.586-4.321 18.644-3.702 3.369-7.809 5.017-12.825 4.837-4.443-.537-8.371-2.874-11.173-6.332-3.774-5.233-3.484-11.454-3.346-17.645l-1.033-.305c-7.589-2.757-13.274-10.158-16.595-17.249-1.601-3.783-2.751-7.951-2.709-12.061l.011-1.375.013-1.041-1.538-.098c-3.886-.451-6.621-2.39-9.206-5.237-2.343-2.965-2.917-6.602-2.537-10.29.571-3.211 2.009-5.525 4.297-7.813.121-.842.121-.842.106-1.824l.012-1.152.003-1.252.03-2.636q.016-2.074.028-4.147c.063-9.89.063-9.89 1.383-14.77l.223-.886c2.893-10.86 10.424-19.73 19.975-25.378 3.288-1.868 6.621-3.188 10.271-4.205l1.3-.379c12.954-3.194 27.105.347 37.349 8.73" fill="#F6C8A8"/><path d="M171.867 100.067a40 40 0 0 1 2.742 2.667l.906.871c1.832 1.854 3.141 3.805 4.318 6.111l.381.738c2.53 5.249 2.351 10.514 2.28 16.205q-.009 1.238-.016 2.477-.02 3.01-.057 6.02l.88-.022 1.162-.018 1.148-.022c2.274.127 3.721 1.137 5.33 2.674 1.966 2.977 2.198 5.886 2.178 9.384l.006 1.347q.006 2.191-.002 4.381l.004 3.06q.002 3.202-.007 6.403-.008 3.689.002 7.379.008 3.564.002 7.129-.002 1.509.003 3.02.003 2.113-.008 4.227l.007 1.251c-.026 3.061-.483 5.555-2.185 8.133-3.064 2.928-6.198 2.838-10.195 2.815l-1.811.008q-2.448.009-4.895 0c-1.712-.004-3.423 0-5.135.002a2408 2408 0 0 1-8.621-.009 1931 1931 0 0 0-9.953.003q-4.281.01-8.561.004-2.553-.004-5.107.002-2.4.007-4.802-.008-.879-.003-1.757.002c-3.503.019-6.249-.06-9.021-2.452l-.528-.661-.546-.657c-1.007-1.543-1.358-2.925-1.368-4.755l-.012-1.239-.001-1.348-.01-1.429q-.011-1.936-.014-3.872-.002-1.211-.007-2.422-.014-4.23-.016-8.461-.003-3.934-.029-7.87-.02-3.385-.02-6.77a544 544 0 0 0-.015-4.038 399 399 0 0 1-.004-4.508l-.017-1.34c.028-3.036.65-4.994 2.782-7.184 2.331-2.079 4.254-2.239 7.235-2.142l-.082-.667c-1.153-10.255-.935-20.887 5.551-29.411 9.276-11.153 25.983-13.682 37.883-5.011m-30.394 11.729c-5.132 7.227-3.19 14.208-3.19 23.363h34.375c.922-14.202.922-14.202-5.029-25.512-3.557-3.348-7.882-5.117-12.809-5.042-5.563.521-9.791 2.92-13.345 7.195" fill="#F8B838"/><path d="M102.321 13.429c8.423 7.126 13.72 16.646 15.257 27.587.093 1.48.092 2.953.076 4.436l-.003 1.217a820 820 0 0 1-.024 3.796l-.011 2.595q-.014 3.158-.038 6.316l-5.469-1.172v9.375c-.675-1.012-.983-1.666-1.329-2.797l-.297-.939a366 366 0 0 1-.602-1.956l-.298-.938-.264-.858c-.326-.855-.326-.855-1.508-1.497-.945-.095-.945-.095-2.004-.049l-1.214.02-1.299.029c-13.048.122-23.732-3.005-33.374-12.109l-.781-.781c-1.122-.228-1.122-.228-2.344 0-.996.917-1.9 1.896-2.82 2.889-4.408 4.672-10.605 8.241-17.082 8.98-1.194.359-1.6.804-2.364 1.804-.56 1.258-.989 2.549-1.416 3.857l-.354 1.048a395 395 0 0 0-.962 2.906l-.781 2.344h-.391V58.204c-3.08.264-3.08.264-5.615 1.343l-.961.511c-.688.398-1.356.83-2.018 1.271a1395 1395 0 0 1-.064-8.19q-.009-1.389-.024-2.779c-.055-5.074-.096-9.894 1.26-14.813l.223-.886C36.31 23.802 43.855 14.928 53.401 9.283c3.288-1.868 6.621-3.188 10.271-4.205l1.3-.379c12.954-3.194 27.105.347 37.349 8.73" fill="#2D2C2C"/><path d="M125 70.313h.391c.254 3.885-1.073 7.162-3.516 10.156-2.707 2.914-5.861 4.049-9.766 4.297l.055.792c.304 8.088-3.038 15.554-7.867 21.864l-.594.798c-2.698 3.398-6.566 6.115-10.344 8.186h-.781l.025.887c.33 13.586.33 13.586-4.321 18.644-3.702 3.369-7.809 5.017-12.825 4.837-4.443-.537-8.371-2.874-11.173-6.332-3.774-5.233-3.484-11.454-3.346-17.645l-1.033-.305c-7.589-2.757-13.274-10.158-16.595-17.249-1.601-3.783-2.751-7.951-2.709-12.061l.011-1.375.013-1.041-1.538-.098c-3.86-.448-6.72-2.374-9.22-5.292-1.712-2.264-2.247-4.255-2.133-7.11.85.85 1.132 1.518 1.611 2.612 1.53 3.108 4.119 5.206 7.374 6.372a43 43 0 0 0 3.123.627c.783.154.783.154 1.174.545q.162 1.28.293 2.564c.925 7.524 3.984 14.091 9.082 19.702l.652.748c5.588 6.044 14.417 9.967 22.592 10.309 10.523.228 19.72-2.648 27.537-9.884 6.568-6.396 9.941-14.766 10.547-23.828l.987-.188c4.189-.869 7.483-2.028 9.95-5.672 1.118-1.871 1.816-3.75 2.344-5.859" fill="#F0B78F"/><path d="M171.867 100.067a40 40 0 0 1 2.742 2.667l.906.871c1.832 1.854 3.141 3.805 4.318 6.111l.381.738c2.53 5.249 2.351 10.514 2.28 16.205q-.009 1.238-.016 2.477c-.012 2.007-.035 4.013-.057 6.02h-9.766l-.044-3.366q-.028-1.631-.059-3.262-.019-1.125-.032-2.251-.022-1.626-.055-3.252l-.008-1c-.112-4.661-1.809-8.793-5.026-12.186-3.482-3.245-7.834-4.92-12.613-4.846-5.192.486-9.098 2.56-12.631 6.336-2.605 3.485-3.684 7.043-3.716 11.354l-.021 1.089c-.021 1.134-.034 2.268-.048 3.402l-.04 2.323c-.034 1.887-.057 3.773-.082 5.66h-9.766c-1.055-10.555-1.246-21.252 5.469-30.078 9.276-11.153 25.983-13.682 37.883-5.011" fill="#E2E1FE"/><path d="m8.984 186.719.857.192c1.034.188 1.966.25 3.014.253l1.146.006 1.249.001 1.334.006q2.218.009 4.436.013l3.176.012q3.421.013 6.842.022 4.946.014 9.892.031 8.025.028 16.05.052a42857 42857 0 0 1 21.383.068q19.998.066 39.996.126l.379 1.06.512 1.389.501 1.377c.963 2.148 2.36 3.157 4.443 4.132l.806.244v.391a27293 27293 0 0 1-44.47.086l-.945.001q-7.566.011-15.131.034-7.768.022-15.536.026-4.79.003-9.58.022-3.288.012-6.577.009-1.895-.002-3.79.009c-1.374.008-2.747.006-4.121.002l-1.193.014c-5.038-.042-8.818-1.794-12.358-5.301-1.316-1.415-2.045-2.322-2.315-4.276" fill="#49A347"/><path d="M92.578 123.438h10.938c0 7.483-2.053 14.413-7.312 19.91-5.084 5.037-11.476 8.249-18.713 8.361q-1.442-.049-2.881-.146l-1.277-.084c-6.826-.749-13.168-4.603-17.535-9.839-3.918-5.531-5.66-11.059-5.407-17.812h10.547l.464 2.686c.807 4.188 2.451 7.799 5.786 10.596 3.912 2.473 7.48 3.552 12.109 3.125 4.463-1.032 8.189-3.063 10.718-6.958 1.723-3.175 2.166-6.265 2.563-9.839" fill="#49A147"/><path d="M161.133 147.827c3.154 1.83 5.393 4.336 6.592 7.798.815 3.387.299 6.542-1.318 9.609a45 45 0 0 1-1.648 1.586c-.966 1.057-1.439 1.633-1.621 3.064.1 1.267.29 2.477.535 3.724q.211 1.256.415 2.513l.198 1.221c.159 1.107.282 2.194.339 3.311l.047.896c-.352 1.407-1.027 1.962-2.171 2.826-1.149.19-2.066.266-3.212.246l-.926.003a133 133 0 0 1-1.932-.016c-.984-.013-1.968-.008-2.952 0q-.941-.004-1.88-.012l-.889.006c-1.365-.03-2.135-.124-3.238-.956-1.862-2.608-.413-7.466.004-10.419.229-1.704.375-3.154.182-4.868-.863-.993-.863-.993-1.953-1.953-2.002-3.382-2.696-6.224-2.344-10.156.352-1.291.877-2.37 1.563-3.516l.488-.829c3.404-5.116 10.245-6.611 15.723-4.079" fill="#474645"/><path d="M188.281 136.328c1.471.275 2.138.814 3.063 2.014 1.716 2.727 1.795 5.679 1.777 8.81l.006 1.347q.006 2.191-.002 4.381l.004 3.06q.002 3.202-.007 6.403-.008 3.689.002 7.379.008 3.564.002 7.129-.002 1.509.003 3.02.003 2.114-.008 4.227l.007 1.251c-.026 3.061-.483 5.555-2.185 8.133-3.064 2.928-6.198 2.838-10.195 2.815l-1.811.008q-2.448.009-4.895 0c-1.712-.004-3.423 0-5.135.002a2408 2408 0 0 1-8.621-.009 1931 1931 0 0 0-9.953.003q-4.281.01-8.561.004-2.553-.004-5.107.002-2.4.007-4.802-.008-.879-.003-1.757.002c-3.508.019-6.331-.026-9.049-2.521l-.549-.714-.574-.727-.403-.542.781-.391 1.172.391a53 53 0 0 0 2.434.057l1.545.009 1.699.003 1.786.008q2.936.011 5.871.016l2.022.005q4.751.011 9.502.016 5.48.006 10.961.03 4.238.017 8.477.019 2.53 0 5.061.014 2.382.014 4.764.007.872 0 1.744.008c4.77.059 4.77.059 8.785-2.292 2.42-2.649 2.256-5.559 2.235-8.934v-1.456q0-1.969-.009-3.936-.006-2.06-.006-4.12-.004-3.897-.017-7.794-.012-4.439-.017-8.876-.013-9.127-.04-18.253" fill="#EBAF21"/><path d="m61.328 123.828 2.271.562 1.277.316a35 35 0 0 1 2.312.685q.877.052 1.755.052l1.03.002 1.073-.005 1.064.005c1.669-.003 3.215-.041 4.845-.444 2.487-.244 4.485.357 6.641 1.563 2.114 1.747 3.299 4.063 3.625 6.77.053 1.331-.047 2.407-.452 3.679-2.495 2.641-6.401 3.632-9.912 3.76-4.327-.079-8.06-1.818-11.206-4.761-2.756-2.946-4.4-6.292-4.346-10.352l.011-1.045z" fill="#F5C8A8"/><path d="M171.375 99.707a33 33 0 0 1 3.234 3.028c-1.431 0-2.109-.43-3.369-1.099-5.915-3.025-12.914-3.905-19.409-2.221-7.244 2.443-13.163 6.827-16.638 13.761a160 160 0 0 0-.745 1.596l-.344.729c-1.892 4.359-1.822 9.247-1.927 13.92q-.022.841-.046 1.681-.055 2.028-.101 4.057h-3.516c-1.221-10.459-1.167-21.356 5.469-30.078 8.998-10.82 25.669-13.88 37.391-5.371" fill="#C2C2EE"/><path d="M92.188 116.797c.903 12.677.903 12.677-3.211 18.388-.711.769-1.296 1.139-2.258 1.534l.055-.803c.115-2.966-.205-5.658-2.133-8.037-1.814-1.66-3.986-2.423-6.394-2.586-1.224.059-1.224.059-2.119.291-4.959.866-10.267.51-14.8-1.756v-6.641l1.685.513a283 283 0 0 0 4.443 1.294l1.005.284c7.297 1.728 15.439.885 22.261-2.195.684-.286.684-.286 1.466-.286" fill="#E7AA80"/><path d="m155.152 146.851 1.506.011 1.155.013c-.391.781-.391.781-1.088 1.031l-.889.238c-3.386 1.091-5.211 2.954-6.957 6.009-1.307 2.742-1.24 6.153-.578 9.073.655 1.802 1.42 2.952 2.798 4.279.903.964 1.223 1.425 1.361 2.752-.098 1.34-.284 2.637-.507 3.961q-.211 1.538-.415 3.076l-.209 1.413c-.212 1.846-.359 3.5.234 5.277l.781.391c-.618.043-1.237.073-1.855.098l-1.044.055c-1.007-.153-1.007-.153-1.908-.798-1.925-2.666-.491-7.466-.063-10.503.229-1.704.375-3.154.182-4.868-.863-.993-.863-.993-1.953-1.953-2.002-3.382-2.696-6.224-2.344-10.156.352-1.291.877-2.37 1.563-3.516l.488-.829c2.292-3.445 5.679-5.093 9.741-5.055" fill="#1F1E1C"/><path d="M24.805 144.58c1.367.342 1.367.342 2.124.806.619 1.056.515 1.843.415 3.052-.529 1.018-.529 1.018-1.245 2.027-2.894 4.332-4.473 8.792-4.785 14.014-.1 1.311-.166 1.843-.879 2.979-1.199.68-1.889.739-3.247.513-.989-.783-1.496-1.261-1.77-2.507.084-7.459 2.633-14.725 7.43-20.453.59-.48.59-.48 1.957-.431" fill="#8AD688"/><path d="m67.954 101.902 1.252-.004 1.363.002 1.388-.001 2.912.002q2.237.002 4.475-.003 1.411 0 2.821.002l1.363-.002 1.252.004 1.108.001c.831.05.831.05 1.221.441.195.83.195.83 0 1.953-1.805 2.478-4.77 4.534-7.813 5.078-4.344.247-7.78-.075-11.328-2.734-1.123-1.05-1.123-1.05-1.953-1.953l-.781-.781c.3-1.982.816-2.002 2.72-2.004" fill="#E8AA80"/><path d="M124.976 156.128c1.196.122 1.196.122 1.847.592.693.932.672 1.519.679 2.675l.015 1.217-.003 1.313.006 1.35q.004 1.414-.001 2.828a417 417 0 0 0 .02 4.331q.001 1.373-.001 2.746l.013 1.311-.011 1.22v1.072c-.26 1.26-.75 1.738-1.759 2.514-1.245-.049-1.245-.049-2.344-.391-.495-.991-.443-1.685-.447-2.794l-.008-1.272-.001-1.379-.004-1.41q-.003-1.477-.003-2.955a980 980 0 0 0-.016-4.537q-.002-1.432-.002-2.866l-.009-1.379.004-1.272-.002-1.123c.155-1.43.639-1.645 2.025-1.793" fill="#FAD486"/><path d="M93.75 73.047c1.326.801 1.876 1.447 2.734 2.734.179 2.178.087 3.603-1.172 5.469-1.408 1.242-2.782 1.395-4.6 1.34-1.487-.287-2.18-1.037-3.212-2.121-.727-1.455-.614-3.104-.391-4.688 1.513-2.829 3.688-3.079 6.641-2.734m-30.859 0c1.221.653 2.107 1.479 2.734 2.734.225 1.848.17 3.182-.684 4.859-1.018 1.16-1.765 1.678-3.295 1.913-1.562.027-2.439.002-3.81-.815-1.469-1.603-1.78-2.941-1.741-5.075.263-1.504 1.016-2.187 2.107-3.226 1.455-.727 3.104-.614 4.688-.391" fill="#302E2E"/><path d="m71.094 88.281.645.513c1.854 1.369 3.235 2.177 5.576 2.014 1.277-.289 2.148-.932 3.154-1.746l1.172-.781c.391.391.391.391.513 1.416-.155 1.67-.634 2.753-1.685 4.053-1.902 1.404-3.967 1.506-6.25 1.172-1.724-.846-2.77-1.734-3.516-3.516-.098-1.465-.098-1.465 0-2.734z" fill="#E8AB81"/><path d="M90.96 67.115q1.25-.003 2.5-.016l1.584-.002 1.461-.005c1.151.096 1.151.096 1.933.877-.217 1.78-.217 1.78-.781 2.344-1.719.085-3.439.073-5.16.072q-1.297.003-2.595.016-.821.002-1.643.002l-1.517.005c-1.195-.095-1.195-.095-1.976-.877.098-1.001.098-1.001.391-1.953 1.682-.841 3.935-.463 5.804-.463" fill="#373332"/><path d="M59.24 67.115h.832c.837 0 1.673-.008 2.51-.015l1.589-.002 1.468-.005c1.158.095 1.158.095 1.939.876.049 1.025.049 1.025 0 1.953-1.682.841-3.935.463-5.804.463q-1.25.003-2.5.016l-1.584.002-1.46.005c-1.152-.095-1.152-.095-1.933-.877.384-3.146 2.225-2.406 4.943-2.416" fill="#353231"/><path d="M33.936 136.255c1.22.464 1.22.464 2.002 1.123.573 1.324.516 1.89 0 3.247-1.377 1.467-2.616 2.269-4.614 2.564-1.246-.22-1.246-.22-2.003-.635-.719-1.311-.709-2.02-.415-3.491 1.443-1.669 2.802-2.7 5.029-2.807" fill="#8AD688"/><path d="M124.976 144.409c1.196.122 1.196.122 1.846.583 1.052 1.434.746 3.318.522 5.008-.635 1.074-.635 1.074-1.563 1.563-1.245-.049-1.245-.049-2.344-.391-.556-1.113-.457-2.081-.464-3.32l-.017-1.379c.123-1.591.434-1.895 2.019-2.063" fill="#FAD384"/><path d="m35.156 67.578 1.563.391-.027 1.042-.021 1.375-.027 1.359c.074 1.27.313 2.117.857 3.255l-1.953.391c-1.368-1.653-1.298-3.182-1.289-5.226.119-1.038.371-1.693.898-2.586" fill="#F0B68F"/><path d="M116.797 67.578c.806.171.806.171 1.563.391.63 2.246.716 4.305-.195 6.47l-.587.952-1.953-.391.391-.879c.472-1.77.432-3.35.38-5.171.01-.981.01-.981.401-1.372" fill="#F0B68E"/></svg>