<svg xmlns="http://www.w3.org/2000/svg" width="100" height="100" viewBox="0 0 100 100"><path d="m37.842 2.24 2.94-.002q3.056 0 6.113.005 4.644.005 9.287-.005 2.988 0 5.975.003l2.768-.005c19.578.055 19.578.055 26.362 6.078 7.452 8.129 6.49 18.688 6.473 29.041l.002 3.054q.002 3.18-.005 6.358-.005 4.039.003 8.076.003 3.903-.001 7.805l.005 2.891c-.052 18.952-.052 18.952-6.078 25.754-8.214 7.511-19.07 6.487-29.528 6.469l-2.941.003q-3.057 0-6.113-.005-4.644-.004-9.287.005-2.988 0-5.975-.003l-2.768.005c-19.578-.055-19.578-.055-26.362-6.078-7.452-8.129-6.49-18.688-6.473-29.04l-.002-3.055q-.002-3.18.005-6.358.005-4.039-.003-8.076-.003-3.902.001-7.805l-.005-2.891c.052-18.952.052-18.952 6.078-25.754 8.214-7.511 19.07-6.487 29.529-6.469" fill="#CDE9FF"/><path d="M54.88 21.662c3.112 2.259 5.384 5.246 6.839 8.807.691 4.964.759 9.667-1.855 14.063-3.291 4.195-7.448 6.447-12.664 7.401-4.95.296-8.301-1.092-12.044-4.277-3.782-3.677-5.513-7.11-5.762-12.353.108-4.04.935-7.081 3.419-10.303 6.254-5.882 14.298-7.765 22.067-3.338" fill="#3780FF"/><path d="m35.938 51.563 2.491 1.221c4.206 1.839 8.564 1.899 12.891.391a84 84 0 0 0 3.897-1.786c2.25-.752 3.474-.526 5.722.174l2.344 1.563v1.563l-2.49.879c-4.197 1.79-6.692 5.095-8.449 9.276-.777 5.391.148 8.816 3.125 13.281v1.563c-8.222 2.669-18.53 1.147-26.141-2.478-6.348-3.328-6.348-3.328-8.234-6.116-.773-4.828.771-9.106 3.125-13.281 6.368-7.677 6.368-7.677 11.719-6.25" fill="#17A6FF"/><path d="M70.313 57.031c3.866 1.547 6.74 4.887 8.594 8.594.316 4.103-.086 6.695-2.344 10.156-3.107 3.073-5.566 4.805-9.961 4.932-3.823-.055-5.914-.7-8.789-3.37-2.682-3.599-3.654-6.328-3.424-10.828.662-3.704 2.775-5.772 5.475-8.215 3.57-1.719 6.552-1.798 10.449-1.269" fill="#16ABFF"/><path d="M67.188 63.281c2.432.27 3.773.683 5.762 2.148 1.269 1.759 1.269 1.759 1.269 3.712-.939 2.348-1.906 3.535-3.906 5.078h-3.125l.781-3.125-8.594-.781v-3.125l8.594-.781z" fill="#B9E2FF"/></svg>