<svg xmlns="http://www.w3.org/2000/svg" width="60" height="60" viewBox="0 0 60 60"><path d="M12.188.938h35.625v4.688l-5.625.938v.938l15 .938v4.688l-2.813.938v1.875L60 17.816c.04 1.875.037 3.75 0 5.625-.938.938-.938.938-2.874 1.029l-2.34-.033-2.348-.026-1.813-.036V30h6.563v5.625h-6.563v4.688l1.813-.033 2.348-.026 2.34-.033c1.937.092 1.937.092 2.874 1.029.037 1.562.04 3.126 0 4.688l-5.625 1.875v1.875l3.75 1.875c.04 1.875.037 3.75 0 5.625-1.645 1.645-3.959 1.057-6.192 1.059l-3.403.008-3.706-.006-3.772.003q-3.957.001-7.915-.006-5.083-.006-10.168.004-3.895.005-7.792 0-2.79 0-5.579.005l-3.403-.009-3.014-.002C.938 58.125.938 58.125 0 57.188c-.037-1.875-.04-3.75 0-5.625l5.625-1.875v-1.875l-2.813-.938V41.25h6.563V30.938l-3.691.059a55 55 0 0 1-3.809-.059C.937 30 .937 30 .879 27.13l.059-2.755C7.266 22.5 7.266 22.5 9.376 22.5v-4.688l-3.222-.41c-3.341-.527-3.341-.527-4.279-1.464-.117-2.813-.117-2.813 0-5.625 1.931-1.931 5.828-1.326 8.497-1.464l2.154-.123q2.644-.15 5.287-.288V6.563l-5.625-.938z" fill="#FB6683"/><path d="m19.004 14.87 2.09.006 2.133-.003q2.236 0 4.474.006c2.29.005 4.58 0 6.87-.007q2.168 0 4.336.004l2.09-.006c4.834.022 4.834.022 5.879 1.068.094 2.353.131 4.678.125 7.031l.003 2.133q0 2.236-.006 4.474c-.005 2.29 0 4.58.007 6.87q0 2.168-.004 4.336l.006 2.09c-.024 4.833-.024 4.833-1.069 5.878a165 165 0 0 1-7.031.125l-2.133.003q-2.236 0-4.474-.006-3.435-.005-6.87.007-2.167 0-4.336-.004l-2.09.006c-4.834-.023-4.834-.023-5.879-1.068A165 165 0 0 1 13 40.782l-.003-2.133q0-2.236.006-4.474c.005-2.29 0-4.58-.007-6.87q0-2.167.004-4.336l-.006-2.09c.027-5.742.267-5.982 6.009-6.009" fill="#F2EBF1"/><path d="M12.188.938h35.625v4.688l-5.625.938v.938l15 .938v4.688l-2.813.938v1.875L60 17.816c.04 1.875.037 3.75 0 5.625-.938.938-.938.938-2.874 1.029l-2.34-.033-2.348-.026-1.813-.036-.172-2.428-.238-3.138c-.075-1.034-.152-2.067-.231-3.131-.019-2.469-.019-2.469-1.234-3.49a231 231 0 0 0-8.295-.092l-2.518.005q-3.998.01-7.996.028-2.704.008-5.407.013-6.642.016-13.284.046l-1.875 5.625c-6.445-.82-6.445-.82-7.5-1.875-.117-2.813-.117-2.813 0-5.625 1.931-1.931 5.828-1.326 8.497-1.464l2.154-.123q2.644-.15 5.287-.288V6.563l-5.625-.938z" fill="#DCF8FE"/><path d="M50.625 40.313q2.08-.037 4.161-.058l2.34-.034c1.937.092 1.937.092 2.874 1.029.037 1.562.04 3.126 0 4.688l-5.625 1.875v1.875l3.75 1.875c.04 1.875.037 3.75 0 5.625-1.645 1.645-3.959 1.057-6.192 1.059l-3.403.008-3.706-.006-3.772.003q-3.957.001-7.915-.006-5.083-.006-10.168.004-3.895.005-7.792 0-2.79 0-5.579.005l-3.403-.009-3.014-.002C.938 58.125.938 58.125 0 57.188c-.037-1.875-.04-3.75 0-5.625l5.625-1.875v-1.875l-2.813-.938V41.25h6.563l.172 2.018.238 2.611c.075.86.152 1.719.231 2.604.071 2.107.071 2.107 1.234 3.08 2.761.095 5.5.131 8.262.125l2.511.003q2.634 0 5.269-.006c2.697-.005 5.394 0 8.092.007q2.552 0 5.106-.004l2.462.006c3.662.351 3.662.351 6.737-1.068.219-1.733.387-3.473.528-5.214l.237-2.875z" fill="#DDF9FE"/><path d="M35.801 20.742c3.21 2.141 4.661 3.931 6.387 7.383.612 4.894-.172 8.037-2.813 12.188-3.038 2.753-5.564 3.656-9.667 4.043-4.171-.354-5.933-1.322-9.083-4.043-2.728-4.093-3.422-7.308-2.813-12.188 4.018-7.739 9.609-10.341 17.989-7.383" fill="#FB6888"/><path d="M9.375 22.5v8.438c-5.768.092-5.768.092-7.5 0C.937 30 .937 30 .879 27.13l.059-2.755C7.266 22.5 7.266 22.5 9.376 22.5" fill="#DBF9FF"/><path d="M50.625 30h6.563v5.625h-6.563z" fill="#DAF9FF"/></svg>