<svg xmlns="http://www.w3.org/2000/svg" width="200" height="200" viewBox="0 0 200 200"><path d="m80.103-.104.941-.005q1.556-.006 3.111-.004L86.39-.12q3.033-.01 6.065-.009 1.896 0 3.791-.004 6.617-.011 13.233-.01 6.163 0 12.325-.02 5.296-.015 10.591-.014 3.16.001 6.321-.01 2.974-.011 5.947-.002 1.089.001 2.178-.006c7.034-.045 7.034-.045 9.8 1.758l.845.527c2.714 1.765 4.779 4.479 5.636 7.609.329 1.751.254 3.527.236 5.302l-.003 1.276q-.008 2.005-.024 4.012l-.011 2.729q-.014 3.334-.039 6.67l.857-.476 1.203-.669 1.334-.741 2.893-1.605a643 643 0 0 0 6.43-3.6l.953-.54q.853-.484 1.702-.975c3.641-2.057 7.485-2.57 11.595-1.687 3.88 1.271 6.495 3.427 8.505 6.961 1.632 3.463 1.79 7.43.992 11.164-1.923 5.308-6.748 8.061-11.488 10.552l-2.521 1.347-1.284.687a281 281 0 0 0-6.754 3.793 108 108 0 0 1-5.63 3.046 238 238 0 0 0-2.941 1.504c-.703.357-1.416.695-2.128 1.033-1.272.663-2.299 1.234-3.327 2.237-.495 1.6-.536 3.027-.391 4.688l.811-.037c3.17-.121 5.355.423 7.855 2.405 2.513 2.359 3.734 5.22 3.879 8.652-.145 3.434-1.184 5.861-3.577 8.341-2.247 1.85-4.82 3.154-7.407 4.468l.916.174c3.676.792 5.989 1.961 8.215 5.027 1.88 3.069 2.136 6.139 1.416 9.643-1.07 2.987-2.811 5.023-5.542 6.641l-.675.41c-1.314.791-2.653 1.472-4.037 2.129-.985.524-1.375.734-1.766 1.79-.148.963-.148.963-.09 2.312l1.204.133c7.443 1.254 14.311 7.004 18.768 12.869 5.826 8.453 8.364 18.355 6.517 28.527-2.161 10.1-7.692 18.371-16.336 24.007-8.365 5.166-18.483 6.783-28.122 4.607-7.084-1.86-14.024-5.891-18.75-11.548l-.345-.655c-.654-1.146-1.149-1.938-2.445-2.337-1.065-.102-2.102-.116-3.172-.102l-1.221-.017a247 247 0 0 0-3.994 0l-2.78-.011a666 666 0 0 0-5.829.009c-2.487.014-4.973 0-7.459-.02a575 575 0 0 0-5.743-.005q-1.375.002-2.75-.011c-1.284-.01-2.566 0-3.851.016l-1.141-.021c-2.13.05-3.221.393-4.757 1.909a56 56 0 0 0-1.385 1.632l-1.367 1.563-.671.781a50 50 0 0 1-2.258 2.344 47 47 0 0 0-2.832 3.027c-6.75 7.795-15.289 13.493-25.684 14.941-6.08.415-12.162.406-17.969-1.563l-.758-.254c-11.354-3.89-19.117-12.455-24.609-22.817-4.262-8.92-5.188-20.262-1.977-29.663l.247-.75c1.888-5.618 5-10.246 9.128-14.484l.778-.838c3.156-3.315 7.124-5.611 10.965-8.049l2.59-1.651 1.27-.809q2.458-1.57 4.905-3.155l.805-.52a186 186 0 0 0 5.029-3.367c.611-.361.611-.361 1.392-.361l.204-1.01c.798-3.548 1.94-6.843 3.287-10.22 1.224-3.09 2.352-6.146 3.15-9.375l.216-.871c1.094-4.72 1.483-9.395 1.47-14.224-.001-.889.008-1.777.018-2.666.013-2.994-.148-5.899-.633-8.855l-.156-.968c-.529-3.177-1.219-6.312-1.95-9.447q-.351-1.508-.694-3.018-.98-4.281-1.971-8.559a1622 1622 0 0 1-1.213-5.284q-.229-.997-.461-1.993a386 386 0 0 1-.639-2.782l-.194-.812c-.791-3.536-.657-6.554 1.169-9.727 1.819-2.758 4.085-3.803 7.254-4.509 6.787-1.107 12.846.715 18.487 4.476l.017-.906c.029-1.375.067-2.749.105-4.123l.027-1.425c.147-4.937 1.107-8.61 4.538-12.296 2.891-2.232 5.752-3.245 9.4-3.229" fill="#09CC66"/><path d="m81.409 7.752.9-.005q1.498-.007 2.996-.01l2.144-.01q3.525-.014 7.05-.021l2.427-.007q5.048-.013 10.096-.02 7.234-.009 14.469-.042 5.086-.022 10.173-.025 3.038-.001 6.076-.019 2.859-.017 5.718-.01 1.048 0 2.096-.01c6.57-.061 6.57-.061 8.582 1.578 2.481 2.758 2.33 5.679 2.291 9.256l.001 1.664q-.002 2.247-.02 4.493c-.01 1.568-.011 3.136-.013 4.704q-.009 4.449-.033 8.898c-.018 3.378-.026 6.756-.034 10.134q-.025 10.419-.079 20.838l1.095-.59 1.459-.762.717-.389c2.952-1.523 6.207-1.55 9.375-.578 2.879 1.332 4.855 3.48 6.139 6.355 1.11 3.254 1.016 6.502-.426 9.636-2.34 3.696-5.986 5.502-9.766 7.422l.916.174c3.676.792 5.989 1.961 8.215 5.027 1.88 3.069 2.136 6.139 1.416 9.643-1.037 2.895-2.733 4.977-5.371 6.568l-.655.395c-2.309 1.366-4.711 2.545-7.124 3.715-1.311.621-1.311.621-2.475 1.432-.918.1-.918.1-2.004.107l-1.215.021-1.298.019c-9.957.277-18.452 3.245-25.952 10.01l-.57.679c-1.184 1.365-2.051 2.218-3.896 2.386q-.986.013-1.972-.015l-1.095.003q-1.17.001-2.341-.017a223 223 0 0 0-3.71-.017c-2.18.002-4.361-.012-6.541-.029a1141 1141 0 0 0-10.464-.042 339 339 0 0 1-3.645-.033l-2.248-.004-1.016-.023c-2.398.016-4.009.658-5.863 2.191-1.581 2.064-1.373 4.488-1.367 6.982l-.034 1.244c-.006 2.348.242 4.006 1.533 5.986 1.744 1.696 3.598 1.953 5.948 1.973l.867.012q1.407.016 2.815.019l1.961.021c1.715.019 3.429.03 5.144.041q2.628.02 5.255.047 5.15.05 10.3.082l.03.78q.07 1.77.142 3.538l.047 1.228c.15 4.66.15 4.66 1.369 9.124.369.954.369.954.369 2.517q-8.017.055-16.034.081-3.723.012-7.445.037-3.594.025-7.188.03-1.37.004-2.739.017-1.921.015-3.843.012l-1.139.017c-2.35-.014-4.198-.372-6.141-1.757-1.741-2.154-2.441-4.064-2.443-6.816l-.007-1.552.004-1.703-.004-1.811q-.005-2.49-.002-4.979 0-2.684-.005-5.369-.007-5.26-.005-10.52.001-4.275-.002-8.551v-1.228l-.002-2.47q-.005-11.59-.001-23.179.002-10.604-.01-21.207-.012-10.886-.009-21.771.002-6.112-.005-12.225a3848 3848 0 0 1-.001-10.408q.004-2.655-.002-5.311-.005-2.432.003-4.862.002-.879-.003-1.758c-.032-6.562-.032-6.562 1.994-8.989l.696-.538.696-.56c1.5-.985 3.014-.891 4.736-.892" fill="#AB6BAC"/><path d="M64.844 21.094c1.877 1.595 1.877 1.595 2.195 3.092l-.002 1.284.012 1.487-.018 1.631q.001.867.005 1.735c.004 1.59-.004 3.18-.013 4.77-.009 1.715-.005 3.429-.004 5.144q.001 4.458-.014 8.916a3384 3384 0 0 0-.013 12.906 11246 11246 0 0 1-.01 22.226 41824 41824 0 0 1-.03 19.059l-.002 1.263q-.016 10.435-.008 20.87.005 6.435-.019 12.869-.015 4.412-.008 8.824a575 575 0 0 1-.011 5.088 375 375 0 0 0-.002 4.665 112 112 0 0 1-.009 1.68c-.054 4.445.92 7.918 3.907 11.293 2.757 2.511 5.936 3.505 9.57 3.76l1.386.099 1.057.073c-3.875 4.609-8.052 8.967-12.197 13.332a581 581 0 0 0-1.737 1.84c-6.257 6.49-15.589 10.833-24.629 11.131-5.318.066-10.28.022-15.343-1.694l-.758-.254c-11.354-3.89-19.117-12.455-24.608-22.818-4.263-8.919-5.189-20.26-1.978-29.662l.247-.75c1.888-5.618 5-10.246 9.128-14.484l.778-.838c3.156-3.315 7.124-5.611 10.965-8.049l2.59-1.651 1.27-.809q2.458-1.57 4.905-3.155l.805-.52a186 186 0 0 0 5.029-3.367c.611-.361.611-.361 1.392-.361l.204-1.01c.798-3.548 1.94-6.843 3.287-10.22 1.224-3.09 2.351-6.146 3.149-9.375l.216-.871c1.094-4.72 1.483-9.395 1.47-14.224-.001-.889.008-1.777.018-2.666.013-2.994-.148-5.899-.633-8.855l-.156-.968c-.529-3.177-1.219-6.312-1.95-9.447q-.351-1.508-.694-3.018-.98-4.281-1.971-8.559a1622 1622 0 0 1-1.213-5.284q-.229-.997-.461-1.993a386 386 0 0 1-.639-2.782l-.194-.812c-.791-3.536-.657-6.554 1.169-9.727 1.819-2.758 4.085-3.803 7.254-4.509 5.915-.965 12.376.178 17.316 3.694" fill="#F2A98C"/><path d="m92.594 20.966.882.006.909.024.919.006c2.232.031 2.232.031 3.134.482.739.071 1.48.125 2.222.171 1.847.137 3.451.404 5.2 1.001l.368-.771c1.046-1.03 1.863-.984 3.289-.989l1.007.027 1.038.014c2.556.067 5.074.309 7.605.669l1.006.139.936.15.823.13c.973.323 1.32.551 1.898 1.413.156 1.059.245 2.041.285 3.105l.048.914q.072 1.444.131 2.889.047.98.097 1.96.118 2.401.22 4.803c.373-1.611.482-3.173.559-4.823l.087-1.668a388 388 0 0 0 .126-2.61q.058-1.267.129-2.533l.073-1.525c.205-1.339.383-1.94 1.37-2.856a21 21 0 0 1 3.32-.146l.914.002c1.512.023 2.295.071 3.578.926.855.13.855.13 1.796.134l1.046.035 2.182.052 1.045.035.957.022c.785.112.785.112 1.566.893.018 1.146.018 1.146-.098 2.602l-.062.789c-.237 2.845-.616 5.672-1.012 8.499l-.415 3.026-.194 1.4a300 300 0 0 0-.562 4.387l.732.293c1.021.601 1.247.927 1.611 2.051.128 2.42-.275 4.699-.684 7.08a356 356 0 0 0-1.66 11.109 303 303 0 0 1-1.759 11.502 156 156 0 0 0-.962 6.329l-.193 1.438a197 197 0 0 0-.345 2.745c-.404 3.005-1.075 5.378-3.448 7.391l-.789.429-.798.45c-1.53.787-2.774.812-4.475.821l-.94.01q-1.545.014-3.089.021l-1.067.007q-2.8.015-5.598.023-2.311.008-4.621.032-2.793.029-5.588.032-1.061.004-2.123.018c-4.357.055-7.804.004-11.252-3.002-2.275-4.188-2.484-9.573-3.178-14.217l-.389-2.566q-.405-2.678-.807-5.355a3141 3141 0 0 0-1.036-6.857q-.402-2.645-.799-5.289l-.383-2.529a1460 1460 0 0 1-.53-3.531l-.16-1.05c-.662-4.48-.662-4.48.325-6.311.816-.997 1.237-1.467 2.441-1.855h1.172l-.107-1.186q-.2-2.229-.393-4.458l-.17-1.91c-.309-3.402-.565-6.805-.635-10.221l-.033-.843c-.009-1.242.007-1.909.858-2.846.907-.428 1.454-.553 2.449-.539" fill="#ED5351"/><path d="m80.103-.104.941-.005q1.556-.006 3.111-.004L86.39-.12q3.033-.01 6.065-.009 1.896 0 3.791-.004 6.617-.011 13.233-.01 6.163 0 12.325-.02 5.296-.015 10.591-.014 3.16.001 6.321-.01 2.974-.011 5.947-.002 1.089.001 2.178-.006c7.034-.045 7.034-.045 9.8 1.758l.845.527c2.714 1.765 4.779 4.479 5.636 7.609.329 1.751.254 3.527.236 5.302l-.003 1.276q-.008 2.005-.024 4.012l-.011 2.729q-.014 3.334-.039 6.67l.857-.476 1.203-.669 1.334-.741 2.893-1.605a643 643 0 0 0 6.43-3.6l.953-.54q.853-.484 1.702-.975c3.641-2.057 7.485-2.57 11.595-1.687 3.88 1.271 6.495 3.427 8.505 6.961 1.632 3.463 1.79 7.43.992 11.164-1.923 5.308-6.748 8.061-11.488 10.552l-2.521 1.347-1.284.687a281 281 0 0 0-6.754 3.793 108 108 0 0 1-5.63 3.046 238 238 0 0 0-2.941 1.504c-.703.357-1.416.695-2.128 1.033-1.272.663-2.299 1.234-3.327 2.237-.495 1.6-.536 3.027-.391 4.688l-3.166 1.106c-1.111.448-2.061 1.012-3.084 1.628h-.781l-.002-.87q-.022-10.486-.07-20.97-.024-5.07-.034-10.141-.007-4.421-.033-8.841-.014-2.34-.014-4.679 0-2.205-.02-4.409-.006-1.19.001-2.38c.004-3.829.004-3.829-1.782-7.084-1.959-1.353-3.429-1.791-5.82-1.758l-.906-.007c-.996-.005-1.991 0-2.986.006q-1.075-.002-2.149-.006-2.912-.006-5.823.005-3.048.006-6.098.001-5.12-.001-10.238.013-5.917.015-11.834.007-5.695-.005-11.389.004-2.423.003-4.845 0-2.852-.002-5.705.011-1.046.003-2.093 0-1.429-.002-2.858.009l-.835-.007c-1.796.023-3.015.396-4.545 1.33-1.962 2.016-2.441 4.105-2.445 6.862l-.008 1.553.003 1.698-.006 1.81q-.007 2.486-.006 4.972-.002 2.682-.011 5.363-.012 5.863-.014 11.727-.002 3.661-.007 7.322a21061 21061 0 0 0-.016 24.218v2.639q-.004 10.591-.027 21.184-.022 10.876-.023 21.752 0 6.105-.015 12.212a2332 2332 0 0 0-.007 10.398 782 782 0 0 1-.006 5.304q-.012 2.43.001 4.859.002.877-.006 1.754c-.03 3.339.12 6.292 2.202 9.061 2.191 1.775 4.598 1.79 7.316 1.776l1.237.012c1.34.012 2.68.012 4.02.013l2.798.02q3.672.024 7.344.031c2.501.007 5.002.023 7.502.039q7.353.044 14.705.063l3.906 7.813q-9.056.055-18.113.081-4.206.011-8.411.037-3.668.023-7.336.029-1.94.003-3.88.018c-1.448.012-2.896.013-4.345.012l-1.281.017c-4.419-.024-7.689-1.277-10.867-4.345-2.32-2.546-3.674-5.133-3.685-8.614l-.006-.783q-.006-1.3-.005-2.601l-.009-1.882q-.011-2.587-.015-5.175-.007-2.79-.02-5.58-.021-5.467-.033-10.934a11283 11283 0 0 0-.037-12.734q-.036-12.049-.063-24.098-.027-11.021-.067-22.043-.041-11.316-.068-22.632-.015-6.354-.038-12.707-.021-5.409-.029-10.82-.003-2.76-.016-5.52-.013-2.528-.011-5.057a265 265 0 0 0-.008-1.825c-.038-5.403.646-9.477 4.437-13.549 2.891-2.232 5.752-3.245 9.4-3.229" fill="#424242"/><path d="M64.844 21.094c1.877 1.595 1.877 1.595 2.195 3.092l-.002 1.284.012 1.487-.018 1.631q.001.867.005 1.735c.004 1.59-.004 3.18-.013 4.77-.009 1.715-.005 3.429-.004 5.144q.001 4.458-.014 8.916a3384 3384 0 0 0-.013 12.906 11246 11246 0 0 1-.01 22.226 41824 41824 0 0 1-.03 19.059l-.002 1.263q-.016 10.435-.008 20.87.005 6.435-.019 12.869-.015 4.412-.008 8.824a575 575 0 0 1-.011 5.088 375 375 0 0 0-.002 4.665 112 112 0 0 1-.009 1.68c-.041 3.438.407 5.863 2.135 8.861.503.895.503.895.503 1.677-5.491-1.621-10.523-4.911-14.844-8.594l-1.114-.922c-8.906-7.677-14.659-19.168-15.976-30.818-.659-9.881.802-19.012 4.498-28.184 1.237-3.07 2.334-6.1 3.143-9.314l.23-.908c1.142-4.773 1.543-9.493 1.529-14.383-.001-.888.008-1.777.018-2.665.013-2.994-.148-5.899-.633-8.855l-.156-.968c-.529-3.177-1.219-6.312-1.95-9.447q-.351-1.508-.694-3.018-.98-4.281-1.971-8.559a1622 1622 0 0 1-1.213-5.284q-.229-.997-.461-1.993a386 386 0 0 1-.639-2.782l-.194-.812c-.791-3.536-.657-6.554 1.169-9.727 1.819-2.758 4.085-3.803 7.254-4.509 5.915-.965 12.376.178 17.316 3.694" fill="#FDC3AA"/><path d="M73.828 114.453q12.84-.124 25.68-.182a2144 2144 0 0 0 11.924-.083q5.197-.053 10.394-.066a505 505 0 0 0 5.503-.041q2.591-.035 5.181-.026.95-.001 1.9-.021c4.772-.097 4.772-.097 6.42 1.188 1.007 1.255 1.631 2.395 2.139 3.919l-.861.331c-4.843 1.931-9.962 4.477-13.381 8.551-1.184 1.365-2.051 2.218-3.896 2.386q-.986.013-1.972-.015l-1.095.003q-1.17.001-2.341-.017a223 223 0 0 0-3.71-.017c-2.18.002-4.361-.012-6.541-.029a1141 1141 0 0 0-10.464-.042 339 339 0 0 1-3.645-.033l-2.248-.004-1.016-.023c-2.398.016-4.009.658-5.863 2.191-1.581 2.064-1.373 4.488-1.367 6.982l-.034 1.244c-.006 2.348.242 4.006 1.533 5.986 1.744 1.696 3.598 1.953 5.948 1.973l.867.012q1.408.016 2.815.019l1.961.021c1.715.019 3.429.03 5.144.041q2.628.02 5.255.047 5.15.05 10.3.082l.03.78q.07 1.77.142 3.538l.047 1.228c.15 4.66.15 4.66 1.369 9.124.367.953.367.953.367 2.516q-8.017.055-16.034.081-3.723.012-7.445.037-3.594.025-7.188.03-1.37.004-2.739.017-1.921.015-3.843.012l-1.139.017c-2.347-.014-4.204-.367-6.141-1.757-1.418-1.781-2.002-3.166-2-5.421l-.002-1.19.004-1.305v-1.374q.001-2.254.006-4.508l.002-3.121q.002-3.691.008-7.384.006-4.202.009-8.405.006-8.645.02-17.291" fill="#FEFEFE"/><path d="M169.609 67.151c2.866 1.741 4.693 3.878 5.781 7.068.694 2.978.502 5.805-.781 8.594-2.34 3.696-5.986 5.502-9.766 7.422l.916.174c3.676.792 5.989 1.961 8.215 5.027 1.88 3.069 2.136 6.139 1.416 9.643-1.037 2.895-2.733 4.977-5.371 6.568l-.655.395c-2.309 1.366-4.711 2.545-7.124 3.715-1.311.621-1.311.621-2.475 1.432-.936.106-.936.106-2.045.121l-1.234.027-1.311.023c-3.43.09-6.617.353-9.944 1.188-1.098.205-1.64.262-2.654-.186-.652-.609-.652-.609-1.245-1.343l-.603-.731c-.495-.663-.495-.663-.885-1.444l-66.016-.391v-.391h65.625l-.781-2.344c-.483-3.484.518-6.566 2.588-9.375 2.311-2.5 5.749-3.934 8.74-5.469l-1.001-.174c-3.884-.768-6.228-1.834-8.521-5.1-1.609-2.628-2.164-4.939-1.807-8.008.816-3.236 2.541-5.827 5.309-7.725a88 88 0 0 1 3.554-1.967l1.294-.703q1.312-.712 2.627-1.416a301 301 0 0 0 3.615-1.982c3.03-1.685 3.03-1.685 3.996-2.217l.785-.434c2.75-1.393 6.963-1.291 9.758.002" fill="#FEC4AA"/><path d="m92.594 20.966.882.006.909.024.919.006c2.232.031 2.232.031 3.134.482.739.071 1.48.125 2.222.171 1.847.137 3.451.404 5.2 1.001l.368-.771c1.046-1.03 1.863-.984 3.289-.989l1.007.027 1.038.014c2.556.067 5.074.309 7.605.669l1.006.139.936.15.823.13c.973.323 1.32.551 1.898 1.413.156 1.059.245 2.041.285 3.105l.048.914q.072 1.444.131 2.889.047.98.097 1.96.118 2.401.22 4.803c.373-1.611.482-3.173.559-4.823l.087-1.668a388 388 0 0 0 .126-2.61q.058-1.267.129-2.533l.073-1.525c.205-1.339.383-1.94 1.37-2.856a21 21 0 0 1 3.32-.146l.914.002c1.512.023 2.295.071 3.578.926.855.13.855.13 1.796.134l1.046.035 2.182.052 1.045.035.957.022c.785.112.785.112 1.566.893.024 1.107.024 1.107-.087 2.531l-.061.782c-.247 2.942-.641 5.865-1.064 8.786q-.198 1.394-.388 2.789l-.254 1.781-.113.839c-.287 1.933-.287 1.933-1.158 2.804-.931.076-.931.076-2.086.049l-1.258-.018-2.634-.061-1.259-.018-1.157-.027c-1.079.004-1.079.004-2.153.857-.543 1.183-.543 1.183-1.001 2.539-.874 2.461-.874 2.461-1.734 3.32-1.377.37-2.695.447-4.116.466l-1.284.019q-2.886.027-5.772.042-1.523.01-3.046.032c-1.466.021-2.931.03-4.397.036l-1.375.027c-3.145-.009-3.145-.009-4.694-1.152-.736-1.077-1.159-2.008-1.536-3.254-.496-1.738-.496-1.738-1.904-2.857-.906-.143-.906-.143-1.909-.162l-1.11-.046-1.155-.037-1.17-.046q-1.429-.055-2.859-.101-.256-2.821-.501-5.643l-.17-1.91c-.309-3.402-.565-6.805-.635-10.221l-.033-.843c-.009-1.242.007-1.909.858-2.846.907-.428 1.454-.553 2.449-.539" fill="#FDB43C"/><path d="M194.324 21.279c2.941 2.073 4.744 4.947 5.676 8.409.391 4.604.203 8.505-2.832 12.207-2.464 2.757-5.68 4.479-8.911 6.177l-2.521 1.347-1.284.687a299 299 0 0 0-5.668 3.166 1307 1307 0 0 1-9.656 5.434l-1.434.799-1.993 1.111-1.159.646c-.87.457-.87.457-1.261.457V29.688l10.547-5.859c2.8-1.587 2.8-1.587 5.597-3.182 4.789-2.553 10.318-2.1 14.898.632" fill="#FFC5AA"/><path d="m140.625 42.578.391 1.172.757.366c1.036.534 1.229.872 1.587 1.977.128 2.42-.275 4.699-.684 7.08a356 356 0 0 0-1.66 11.109 303 303 0 0 1-1.759 11.502 156 156 0 0 0-.962 6.329l-.193 1.438a197 197 0 0 0-.345 2.745c-.404 3.005-1.075 5.378-3.448 7.391l-.789.429-.798.45c-1.53.787-2.774.812-4.475.821l-.94.01q-1.545.014-3.089.021l-1.067.007q-2.8.015-5.598.023-2.311.008-4.621.032-2.793.029-5.588.032-1.061.004-2.123.018c-4.332.054-7.982.089-11.276-3.123-.975-1.667-1.367-2.973-1.367-4.907l1.148-.004q5.37-.022 10.741-.068a1040 1040 0 0 1 5.521-.034q2.667-.01 5.334-.038 1.014-.009 2.029-.009c5.048.114 5.048.114 9.602-1.8 1.363-1.564 1.827-2.984 2.197-5.005l.142-.759c.4-2.234.64-4.482.875-6.738.205-1.845.6-3.485 1.201-5.232.305-1.137.39-2.187.457-3.363.178-2.582.526-5.109.939-7.663l.209-1.32q.209-1.321.421-2.642.281-1.77.55-3.543l.31-2.017.141-.934c.328-2.103.328-2.103.762-2.973h5.469z" fill="#DA4646"/><path d="m92.779 129.901 1.098-.001c1.19.001 2.38.013 3.57.025q1.242.005 2.484.007 3.261.01 6.521.038c2.22.016 4.441.023 6.661.031q6.529.026 13.058.076c-.588 1.209-1.261 2.33-1.981 3.466-2.544 4.055-4.213 8.176-5.277 12.849l-.316 1.383-.238 1.053q-5.659.055-11.318.081-2.628.012-5.255.037-2.538.025-5.076.03-.967.004-1.933.017c-.905.012-1.81.013-2.715.012l-1.559.011c-1.984-.259-3.413-1.003-4.861-2.422-1.489-2.32-1.562-4.432-1.512-7.141l-.023-1.233c.015-2.3.286-3.962 1.535-5.908 2.191-2.146 4.2-2.46 7.137-2.411" fill="#AC6BAD"/><path d="M176.953 138.281c1.429.797 2.215 1.369 3.125 2.734.327 1.627.383 3.211-.434 4.692-.718.848-1.483 1.587-2.301 2.339l-1.175 1.113a254 254 0 0 1-3.903 3.575l-1.031.931q-.941.847-1.885 1.692a447 447 0 0 0-3.383 3.09 199 199 0 0 1-4.565 4.076c-.915.812-1.809 1.645-2.703 2.48-6.744 6.297-6.744 6.297-10.116 6.248-2.471-.419-4.121-2.959-5.663-4.768a133 133 0 0 0-2.441-2.762l-.9-.998-.906-1.004a1739 1739 0 0 1-2.628-2.923 179 179 0 0 0-1.849-2.014l-.943-1.019-.852-.909c-1.111-1.383-1.846-2.7-2.102-4.462.277-1.905 1.168-3.069 2.661-4.248 1.261-.54 2.009-.634 3.369-.439 2.034 1.161 3.489 2.669 5.054 4.395l.73.795a218 218 0 0 1 4.763 5.355l1.538 1.758 1.196 1.367a11 11 0 0 0 2.905-1.904l.816-.729a799 799 0 0 0 4.177-3.849 164 164 0 0 1 4.15-3.711c1.144-1.011 2.262-2.05 3.381-3.088a208 208 0 0 1 5.664-5.078l.755-.671.734-.647.643-.57c1.286-.971 2.57-.998 4.118-.846" fill="#FBFEFD"/><path d="M168.896 66.821c2.996 1.386 4.781 3.577 6.215 6.486.325 1.062.298 1.451-.111 2.473-.723.569-.723.569-1.676 1.099l-1.073.607-1.157.639-2.353 1.343-2.481 1.391-1.239.699c-9.532 5.342-9.532 5.342-14.24 4.77-3.628-1.223-5.831-3.077-7.764-6.299-.465-1.188-.629-1.821-.439-3.076.781-.696.781-.696 1.953-1.367l.66-.384c.816-.469 1.639-.922 2.465-1.374l1.085-.6a490 490 0 0 1 8.29-4.478l1.236-.67c3.577-1.885 6.637-2.496 10.63-1.259" fill="#FEC4AA"/><path d="M136.328 90.625c5.256 1.692 5.256 1.692 7.126 4.005.296.682.296.682.214 1.486-.861 2.12-3.232 3.057-5.199 3.908-1.544.584-3.108.9-4.728 1.196l-.932.185c-1.038.199-2.078.376-3.12.548l-1.241.215c-4.159.646-8.275.699-12.476.69-1.192-.001-2.384.008-3.576.018-7.705.025-19.362-.109-25.57-5.404-.498-.597-.498-.597-.717-1.72.25-1.391.683-1.888 1.814-2.716 3.461-2.114 3.461-2.114 5.112-1.921.716.291.716.291 1.375 1.195 1.651 1.919 3.454 2.519 5.964 2.761 1.922.084 3.843.079 5.767.072l2.141.008q2.235.005 4.471-.004c1.903-.007 3.806.003 5.709.016q2.208.011 4.415.005 1.052 0 2.104.008c5.252.15 5.252.15 9.784-2.207.65-.762 1.086-1.454 1.563-2.344" fill="#913E98"/><path d="m102.916 62.26.869-.007c.944-.005 1.887.005 2.831.015h1.975q2.066.002 4.133.02c1.764.016 3.528.017 5.292.014q2.038-.001 4.075.01.976.004 1.951.004 1.365.002 2.729.02l.811-.004c1.671.03 2.727.323 4.059 1.339.908 1.816-.025 4.625-.464 6.543l-.237 1.044c-.672 1.434-1.397 2.28-2.815 2.96-1.96.294-3.91.266-5.885.246q-.868 0-1.736.003-1.815.001-3.63-.016a348 348 0 0 0-4.645-.003q-1.791.004-3.582-.005a219 219 0 0 0-1.713.001 149 149 0 0 1-2.395-.017l-1.375-.007c-1.475-.245-2.116-.715-3.166-1.764a21.5 21.5 0 0 1-1.098-2.881l-.256-.766c-.494-1.556-.855-2.935-.599-4.557 1.45-1.857 2.598-2.237 4.869-2.193" fill="#FDBF11"/><path d="M175 75.391c1.15 1.725.779 3.102.391 5.078-1.182 4.107-4.023 6.379-7.617 8.398-2.906 1.588-5.869 3.067-8.843 4.523-1.494.737-2.974 1.502-4.457 2.262-2.684 1.235-5.825 1.216-8.648.416-3.045-1.171-4.923-3.348-6.407-6.181-1.169-2.714-1.117-5.595-.087-8.345.73-1.658 1.614-2.888 2.857-4.199l.328.662.452.901.465.925c1.724 3.153 3.937 4.951 7.347 6.107 5.226.721 9.447-1.88 13.818-4.419l1.173-.673q1.154-.662 2.305-1.327 1.42-.818 2.846-1.625l.776-.44.713-.404c1.374-.719 1.374-.719 2.588-1.66" fill="#F1ADA0"/><path d="M175 99.609c1.191 1.787.781 3.418.391 5.469-1.027 2.895-2.739 4.981-5.371 6.568l-.655.395c-2.309 1.366-4.711 2.545-7.124 3.715-1.311.621-1.311.621-2.475 1.432-.936.106-.936.106-2.045.121l-1.234.027-1.311.023c-3.43.09-6.617.353-9.944 1.188-1.098.205-1.64.262-2.654-.186-.652-.609-.652-.609-1.245-1.343l-.603-.731c-.496-.662-.496-.662-.886-1.443l-66.016-.391v-.391h65.625l-.781-2.344c-.434-3.125.284-5.995 2.101-8.578.449-.545.929-1.065 1.414-1.578l.328.662.454.901.465.925c1.724 3.153 3.937 4.95 7.347 6.106 5.226.721 9.447-1.88 13.818-4.419l1.173-.673q1.154-.662 2.305-1.327 1.42-.818 2.846-1.625l.776-.44.713-.404c1.374-.719 1.374-.719 2.588-1.66" fill="#EFAEA3"/><path d="M122.656 22.266c.965.691 1.154 1.068 1.357 2.253l.057 1.362.037.767q.04.853.073 1.707c.04 1.007.089 2.013.138 3.019q.138 2.851.263 5.704.078 1.78.159 3.561l.102 2.293.048 1.06.043 1.009.039.872c.037 1.375.027 2.752.027 4.129h-9.375c-.646-9.389-.887-18.715-.781-28.125 2.182-1.091 5.58-.274 7.813.391" fill="#FED13E"/><path d="m108.789 20.99 1.05-.003 1.098.009 1.099-.009 1.05.003.964.003c.794.101.794.101 1.575.882h-.781q.07 2.905.145 5.81l.049 1.967c.09 3.692.223 7.374.457 11.06a84 84 0 0 1 .155 6.188l-.025 3.1H125v.391h-21.484V50h3.516q-.063-5.068-.133-10.136-.032-2.353-.061-4.707-.028-2.272-.061-4.543l-.022-1.732q-.014-1.215-.034-2.429l-.018-1.396c-.025-1.215-.025-1.215-.311-2.32l-.142-.862c.957-.957 1.225-.881 2.539-.885" fill="#FB933A"/><path d="M142.578 22.266c.781.781.781.781.805 1.888l-.111 1.425-.061.782c-.247 2.942-.641 5.865-1.064 8.786q-.198 1.394-.388 2.789l-.254 1.781-.113.839c-.287 1.933-.287 1.933-1.158 2.804-.878.053-.878.053-1.956-.009l-1.167-.061-1.222-.076-1.231-.067q-1.51-.084-3.017-.178c.205-4.068.629-8.07 1.212-12.1q.198-1.394.388-2.789l.254-1.781.113-.839c.287-1.933.287-1.933 1.158-2.804 2.548-.472 5.23-.625 7.813-.391" fill="#FED03E"/><path d="m92.621 20.979.893.012.92.029.938.016q1.143.022 2.284.057c.399 1.196.426 1.956.399 3.205l-.024 1.256-.032 1.354-.028 1.387q-.045 2.197-.095 4.394l-.062 2.976q-.076 3.653-.158 7.304h-7.031q-.255-2.821-.501-5.643l-.17-1.91c-.309-3.402-.565-6.805-.635-10.221l-.033-.843c-.009-1.241.007-1.909.857-2.848.92-.432 1.47-.547 2.478-.524" fill="#FDB23D"/><path d="M163.281 115.234v3.125l-4.297-.781c2.813-2.344 2.813-2.344 4.297-2.344" fill="#444945"/><path d="M125 32.031h.391L125 38.672c-.832-1.663-.968-2.879-.781-4.688.391-1.172.391-1.172.781-1.953" fill="#BF7A91"/></svg>