<svg xmlns="http://www.w3.org/2000/svg" width="50" height="50" viewBox="0 0 50 50"><path d="m28.906 4.98.283.059c1.994.43 3.887 1.107 5.674 2.09l.184.101a18.6 18.6 0 0 1 3.867 2.88l.311.297c3 2.832 4.913 6.586 5.795 10.589l.053.234c1.048 4.864-.099 10.343-2.721 14.522a22 22 0 0 1-1.824 2.431l-.205.238a21.6 21.6 0 0 1-4.776 4.059l-.314.2c-3.036 1.837-6.585 2.654-10.105 2.656h-.229a20.6 20.6 0 0 1-5.759-.806l-.213-.059c-2.129-.598-4.166-1.651-5.939-2.967l-.195-.144c-.661-.496-1.29-1.009-1.855-1.614a20 20 0 0 0-.698-.681c-3.644-3.42-5.446-8.724-5.636-13.613-.153-5.173 1.789-10.377 5.321-14.164l.427-.448.154-.164c3.109-3.293 7.315-5.228 11.76-5.891l.197-.031a19.8 19.8 0 0 1 6.443.226" fill="#ECF3F4"/><path d="m28.906 4.98.283.059c1.994.43 3.887 1.107 5.674 2.09l.184.101a18.6 18.6 0 0 1 3.867 2.88l.311.297c3 2.832 4.913 6.586 5.795 10.589l.053.234c1.048 4.864-.099 10.343-2.721 14.522a22 22 0 0 1-1.824 2.431l-.205.238a21.6 21.6 0 0 1-4.776 4.059l-.314.2c-3.036 1.837-6.585 2.654-10.105 2.656h-.229a20.6 20.6 0 0 1-5.759-.806l-.213-.059c-2.129-.598-4.166-1.651-5.939-2.967l-.195-.144c-.661-.496-1.29-1.009-1.855-1.614a20 20 0 0 0-.698-.681c-3.644-3.42-5.446-8.724-5.636-13.613-.153-5.173 1.789-10.377 5.321-14.164l.427-.448.154-.164c3.109-3.293 7.315-5.228 11.76-5.891l.197-.031a19.8 19.8 0 0 1 6.443.226m-7.031 4.688-.219.049c-2.677.603-5.161 1.846-7.16 3.732-.2.187-.404.357-.617.528-1.008.88-1.803 2.052-2.453 3.211l-.097.167c-2.022 3.487-2.488 7.706-1.476 11.594.593 2.082 1.487 4.023 2.842 5.719l.136.171c1.118 1.389 2.368 2.481 3.868 3.442l.295.191c1.175.725 2.473 1.22 3.795 1.603l.242.071c1.21.334 2.395.415 3.643.412q.368 0 .736.004c1.578.007 3.04-.218 4.535-.737l.342-.117a15 15 0 0 0 4.967-2.892l.274-.235a12.5 12.5 0 0 0 1.679-1.816l.222-.28c1.208-1.555 2.039-3.311 2.61-5.188l.085-.266c.839-2.801.697-5.949-.182-8.719l-.064-.202c-.748-2.292-2.067-4.33-3.745-6.047l-.254-.273c-2.605-2.728-6.504-4.332-10.252-4.437-1.284-.022-2.503.011-3.752.315" fill="#00C56B"/><path d="M25 4.688c2.06 0 2.06 0 2.795.11l.268.039a20.6 20.6 0 0 1 6.8 2.292l.184.101a18.6 18.6 0 0 1 3.867 2.88l.311.297c3 2.832 4.913 6.586 5.795 10.589l.053.234c1.048 4.864-.099 10.343-2.721 14.522a22 22 0 0 1-1.824 2.431l-.205.238a21.6 21.6 0 0 1-4.776 4.059l-.314.2c-2.275 1.377-4.881 2.156-7.499 2.535l-.218.032c-.845.103-1.649.066-2.516.066v-4.688l1.16-.122c3.403-.385 6.485-1.522 9.094-3.784l.253-.213c.609-.527 1.111-1.103 1.603-1.74l.223-.281c1.207-1.555 2.038-3.311 2.608-5.188l.085-.266c.839-2.801.697-5.949-.182-8.719l-.064-.202c-.748-2.293-2.067-4.33-3.745-6.047l-.233-.251C32.972 10.831 28.978 9.681 25 9.375z" fill="#009E56"/><path d="M20.374 17.249c.618.332 1.073.845 1.551 1.348a10 10 0 0 0 .713.674c.484.417.935.865 1.386 1.316l.258.254.243.242.221.219c.156.182.156.182.156.378a25 25 0 0 0 1.609-1.509l.466-.47.725-.733.707-.713.218-.222c.807-.811.807-.811 1.379-.887.953-.001 1.505.111 2.201.763.552.6.638 1.072.653 1.876-.132.909-.723 1.452-1.353 2.067l-.268.266-.701.692-.717.709a463 463 0 0 1-1.403 1.383c.18.392.439.66.745.958l.147.147a17 17 0 0 0 .856.789c.415.36.806.74 1.195 1.128l.2.197c.72.718 1.257 1.277 1.283 2.324-.009.761-.234 1.212-.745 1.764-.635.585-1.16.637-2.002.643-.769-.096-1.191-.592-1.703-1.125l-.417-.428-.184-.191c-.15-.159-.15-.159-.352-.248v-.195h-.195c-.117-.119-.117-.119-.262-.299-.584-.69-1.243-1.312-1.886-1.947-.326.141-.535.318-.783.571l-.23.234-.246.253-.521.528-.818.835-.792.804-.245.253c-.608.613-1.081.957-1.975.966-.727-.02-1.106-.226-1.614-.726-.51-.552-.715-.983-.735-1.746l-.015-.344c.151-.843.954-1.47 1.54-2.049l.254-.253.797-.791.542-.54q.662-.659 1.325-1.316c-.141-.326-.318-.535-.571-.783l-.234-.23-.253-.246-.528-.521-.835-.818-.804-.792-.253-.245c-.613-.608-.957-1.081-.966-1.975.02-.726.226-1.1.719-1.611.738-.69 1.533-1.037 2.515-.629" fill="#00C56B"/><path d="m24.982 9.363.378.003q.455.003.91.01l.098.195-.33.04c-2.909.386-5.488 1.556-7.776 3.377l-.165.131c-3.027 2.427-4.859 5.988-5.432 9.799-.432 4.177.606 8.443 3.253 11.75l.139.174c2.016 2.491 4.713 4.184 7.771 5.099l.287.088c.896.25 1.817.318 2.74.4v.098q-.768.011-1.536.016l-.52.006c-1.515.022-2.929-.126-4.383-.577l-.245-.075c-4.025-1.283-7.217-4.162-9.166-7.877-1.882-3.78-2.156-8.149-.838-12.145a15.4 15.4 0 0 1 2.528-4.542l.125-.157c2.906-3.631 7.499-5.876 12.162-5.813" fill="#BCC3C3"/><path d="M24.902 28.32c.284.136.485.267.706.492l.17.172.174.179.178.181q.217.22.432.442a24 24 0 0 1-1.41 1.53l-.236.238-.491.494-.5.506q-.362.367-.727.733l-.223.229c-.586.584-1.07.9-1.925.908-.729-.02-1.112-.226-1.618-.733-.263-.288-.461-.505-.586-.878l.25-.008.336-.017.33-.014c.922-.155 1.458-.72 2.087-1.364l.266-.268q.347-.35.692-.701l.709-.717q.695-.7 1.386-1.404m7.91-9.473c.64.265 1.054.684 1.459 1.233.232.737.214 1.468-.144 2.158-.293.456-.692.819-1.078 1.196l-.274.272-.719.709-.735.727q-.717.712-1.438 1.421l-.326-.277-.183-.156c-.229-.2-.444-.412-.657-.629l-.229-.231-.168-.172c.141-.326.318-.535.571-.783l.234-.23.253-.246.528-.521.835-.818q.403-.395.804-.792l.253-.245c.64-.634.936-1.103.984-2.024l.019-.338z" fill="#BAC3C2"/><path d="M32.617 29.395c.195 0 .195 0 .34.143l.167.198.182.215.19.225.539.6c.446.56.405 1.15.34 1.842-.2.73-.751 1.265-1.379 1.654-.632.229-1.379.201-2.002-.024-.44-.304-.805-.721-1.174-1.106-.207-.232-.207-.232-.425-.328l.098-.195.293.098c.748.063 1.44.091 2.051-.391.475-.452.848-.881.901-1.556l-.004-.299-.002-.299a4.5 4.5 0 0 0-.114-.775" fill="#BBC3C3"/></svg>