<svg width="200" height="200" viewBox="0 0 6 6" data-name="Flat Color" xmlns="http://www.w3.org/2000/svg" class="icon flat-color"><path d="M4 5h-.305L3.5 4.19A.25.25 0 0 0 3.25 4h-.5a.25.25 0 0 0-.25.19L2.305 5H2a.25.25 0 0 0 0 .5h2A.25.25 0 0 0 4 5" style="fill:#2ca9bc"/><path style="fill:#000" d="M1 .5h4a.5.5 0 0 1 .5.5v3a.5.5 0 0 1-.5.5H1A.5.5 0 0 1 .5 4V1A.5.5 0 0 1 1 .5"/><path data-name="secondary" d="M4.395 1.548a.25.25 0 0 0-.347.058l-.843 1.177A.7.7 0 0 0 3 2.75a.75.75 0 0 0-.75.75.25.25 0 0 0 .25.25h1a.25.25 0 0 0 .25-.25.74.74 0 0 0-.138-.43l.84-1.175a.25.25 0 0 0-.058-.347" style="fill:#2ca9bc"/></svg>