<svg xmlns="http://www.w3.org/2000/svg" width="200" height="200" viewBox="0 0 200 200"><path d="m60.698-.06 1.011-.005q1.68-.007 3.359-.01l2.406-.01q3.954-.014 7.908-.021l2.723-.007q5.665-.013 11.33-.02 8.115-.009 16.23-.042 5.707-.022 11.415-.025 3.408-.001 6.816-.019 3.208-.017 6.416-.01 1.175 0 2.35-.01c8.207-.068 8.207-.068 11.65 3.055 2.494 3.456 2.677 6.271 2.563 10.465l.659.017c3.145.196 5.2 1.366 7.3 3.694 2.634 3.312 2.268 7.344 2.27 11.377l.015 1.438.002 1.386.005 1.255c-.162 1.956-.657 2.88-2.048 4.271L150 37.11l-4.297 36.328 1.953.781c1.79 1.628 1.79 1.628 2.344 2.734q.025 1.367 0 2.734l1.224-.013q2.254-.02 4.51-.03.975-.006 1.949-.016 1.404-.013 2.807-.018l.876-.013c1.591 0 2.863.077 4.259.87.808.823 1.135 1.314 1.305 2.457l-.018.967-.012 1.053-.03 1.089-.016 1.108q-.021 1.351-.057 2.701l1.074-.019q1.986-.029 3.971-.046.857-.009 1.714-.024 1.236-.02 2.473-.026l1.5-.019c1.749.169 3.06.702 4.364 1.891 1.545 1.984 1.75 3.212 1.739 5.693l-.002.809q-.004 1.278-.012 2.555-.004.867-.005 1.734-.007 2.123-.019 4.247l1.199-.055 1.584-.043.787-.04c2.013-.039 3.081.452 4.632 1.7 1.402 1.438 1.657 2.557 1.669 4.498-.049 3.538-.627 6.986-1.176 10.474l-.345 2.248a2192 2192 0 0 1-.939 6.059q-.493 3.176-.982 6.353-.821 5.326-1.65 10.652-1.063 6.84-2.118 13.681l-1.82 11.77-.585 3.783q-.459 2.966-.921 5.931l-.338 2.18q-.229 1.483-.461 2.966l-.135.877c-.179 1.141-.382 2.195-.748 3.293a1315 1315 0 0 1 6.568-.043q1.117-.006 2.234-.016 1.607-.013 3.214-.018l1.005-.013c2.023 0 3.586.137 5.254 1.396.612.832.644 1.352.645 2.379l.023.902c-.279 1.264-.725 1.66-1.757 2.443a21.5 21.5 0 0 1-3.263.196l-1.012.007c-1.126.006-2.251 0-3.377-.005l-2.437.007c-2.238.007-4.477.003-6.715-.002-2.411-.004-4.823.002-7.234.006q-6.68.01-13.359.002-6.17-.006-12.34-.003h-.826l-3.32.002q-15.577.006-31.155-.008a17171 17171 0 0 0-27.693 0 24432 24432 0 0 1-35.234.005q-6.167-.002-12.334.004-7.01.007-14.021-.005a1844 1844 0 0 0-7.159 0q-3.273.007-6.546-.006a341 341 0 0 0-2.375.003q-1.607.005-3.215-.007l-.943.011c-1.392-.02-2.168-.093-3.291-.947-.865-1.206-.809-2.068-.743-3.509.159-.823.159-.823.843-1.8 1.483-.989 2.889-1.035 4.645-1.1l1.267-.05 1.315-.047 1.334-.051q1.628-.062 3.256-.12l-.553-.679c-1.382-1.731-2.57-3.363-3.476-5.4l-.557-1.223c-1.058-2.773-1.401-5.259-1.419-8.201l-.011-1.068q-.009-1.111-.011-2.221a254 254 0 0 0-.043-3.379q-.006-1.085-.009-2.17l-.023-1.009c.018-2.395.621-4.07 2.195-5.9 2.425-1.999 4.585-1.563 7.813-1.563l-.391-10.156-3.906-1.953c-2.8-1.96-4.389-4.574-5.469-7.813-.253-3.651-.28-6.886 1.563-10.156l.401-.748c1.298-2.097 3.3-3.571 5.458-4.719l2.344-.391v-10.156h-3.516c-2.453-.382-3.921-1.321-5.432-3.273-2.143-3.177-1.127-9.968-.638-13.656.257-1.296.584-2.518.992-3.774l.223-.725c2.933-9.402 9.255-16.969 17.893-21.687 7.813-4.064 15.835-4.282 24.463-4.15l-.391-.781a77 77 0 0 1-.331-2.532l-.093-.787-.298-2.584-.208-1.796q-.219-1.884-.434-3.768-.277-2.412-.559-4.823l-.429-3.711-.206-1.778q-.145-1.245-.286-2.491l-.165-1.431a28 28 0 0 1-.117-3.206l-1.042.069-1.375.054-1.359.068c-1.723-.252-2.185-.786-3.255-2.144a15 15 0 0 1-.246-3.058l-.003-.886q0-.926.016-1.852c.013-.935.008-1.868 0-2.803.004-3.856.499-6.607 2.625-9.859 1.878-1.796 3.893-2.988 6.521-3.079l1.243.052-.041-1.186c-.106-4.238.306-6.647 3.256-9.857 2.25-2.2 4.475-2.297 7.483-2.298" fill="#010100"/><path d="M93.359 113.281c3.115-.238 5.975.065 8.472 2.1 1.896 1.753 2.906 3.624 3.954 5.957 1.626 3.426 3.436 6.272 5.933 9.131l.675.792c4.234 4.599 10.549 7.795 16.513 9.364l1.172.439c9.839 2.87 21.876.489 30.666-4.313 6.438-4.079 10.977-9.518 13.954-16.494 1.37-3.162 3.254-5.229 6.455-6.684 1.735-.4 3.403-.356 5.176-.293.125 3.123-.357 6.037-.903 9.107q-.255 1.462-.508 2.925l-.134.775a253 253 0 0 0-.926 5.878 926 926 0 0 1-1.517 9.839l-.411 2.591q-.565 3.57-1.133 7.139c-1.059 6.638-2.066 13.275-2.934 19.941a241 241 0 0 1-1.544 10.214l-.241 1.414q-.232 1.358-.466 2.715a558 558 0 0 0-.825 4.991 38 38 0 0 1-.567 2.55h-68.751l-1.953-13.281c-.746-4.439-.746-4.439-1.495-8.878-.448-2.714-.817-5.435-1.166-8.163-.724-5.645-1.577-11.27-2.441-16.895l-.203-1.332c-.898-5.904-.898-5.904-1.953-11.782-.639-3.313-1.114-6.642-1.579-9.982l-.256-1.811a453 453 0 0 1-1.062-7.954" fill="#F24234"/><path d="m46.227 73.248 1.956-.004c1.75-.004 3.501.002 5.251.01 1.842.007 3.684.005 5.526.005q4.634.002 9.268.018 5.343.018 10.687.016 5.714.001 11.429.013l3.273.002q2.577.002 5.155.014.941.003 1.882.003c7.732-.004 15.001 1.496 21.221 6.364v.391l-.68.011a263 263 0 0 0-3.08.087l-1.07.017c-2.199.08-3.639.291-5.327 1.839-1.535 2.102-1.387 4.478-1.441 6.982l-.04 1.266a331 331 0 0 0-.081 3.077l-1.104.011q-2.043.027-4.086.07-.882.016-1.763.025-1.273.015-2.545.047l-1.544.025c-1.832.268-2.695.684-4.192 1.776-1.823 3.248-1.823 3.248-1.563 11.328H13.281c0-9.093 1.471-16.175 7.422-23.047l.732-.964c2.271-2.705 5.438-4.576 8.545-6.189l.689-.37c4.924-2.439 10.166-2.863 15.557-2.822" fill="#FE9700"/><path d="M53.906 36.719h89.063a3559 3559 0 0 1-1.966 18.238q-.184 1.666-.366 3.333-.224 2.05-.451 4.098l-.248 2.269a134 134 0 0 1-1.266 8.781l-.755.02c-1.01.028-2.02.066-3.029.102l-1.079.027c-1.964.079-3.283.197-4.902 1.414a68 68 0 0 1-1.563.781l-1.018-.772c-3.03-2.257-6.004-4.061-9.529-5.478l-1.121-.461c-4.163-1.618-8.216-1.999-12.657-2.007l-1.514-.012a1009 1009 0 0 0-4.069-.022q-2.134-.01-4.268-.027-4.032-.027-8.064-.045-4.594-.023-9.188-.054a13332 13332 0 0 0-18.885-.107l-.168-1.529-.628-5.687-.27-2.448c-.786-7.151-.786-7.151-1.741-14.282-.297-2.105-.318-3.961-.318-6.134" fill="#2195F1"/><path d="M13.281 166.797a900 900 0 0 1 23.617-.83c3.66-.082 7.315-.193 10.972-.379 26.432-1.314 26.432-1.314 33.989 5.374 3.024 2.787 5.684 6.016 7.965 9.434 1.094 1.713 1.094 1.713 2.8 2.656 1.398.042 2.151-.116 3.226-1.021l.635-.781h.781q.394 2.367.781 4.736l.226 1.352.214 1.313.198 1.203c.146 1.182.153 2.317.143 3.506q-13.65.027-27.301.041-6.338.005-12.676.018-5.526.012-11.052.014-2.925.001-5.849.009-2.756.008-5.512.006-1.008 0-2.017.005c-6.645.029-11.747-.624-16.741-5.391-4.32-4.655-4.471-9.951-4.427-15.995l.006-1.538q.008-1.866.021-3.733" fill="#FD9701"/><path d="M148.807 153.044c3.985 2.955 6.664 7.12 7.736 11.946l.098 1.416.075 1.031c.215 5.292-1.609 10.027-5.193 13.924-3.959 3.742-8.895 5.611-14.319 5.47-4.667-.415-8.808-2.374-12.204-5.581-3.589-4.33-5.322-8.754-5.199-14.398.507-5.159 2.974-9.723 6.946-13.029 6.987-4.935 14.85-5.167 22.059-.778" fill="#040201"/><path d="m50.504 19.823 1.043-.007 1.146.004 1.217-.004q2.028-.005 4.057-.001l2.9-.006q3.536-.007 7.073-.005 2.874.001 5.748-.002h.826l1.66-.002q7.791-.005 15.581-.001 7.129.002 14.258-.01 7.316-.012 14.634-.009 4.109.002 8.218-.005 3.864-.007 7.727.001 1.42.002 2.84-.004 1.935-.005 3.87.004l1.141-.009c2.418.02 3.801.352 5.557 2.108v8.203H46.484c0-7.422 0-7.422 1.172-9.375 1.214-.81 1.473-.879 2.848-.88" fill="#F3F3F3"/><path d="M23.438 113.281h63.281c1.563 8.203 1.563 8.203 1.563 10.156l-1.032.017q-1.912.037-3.824.085-.824.02-1.649.033c-.794.013-1.588.034-2.382.055l-1.444.031c-3.711.452-5.532 2.542-8.062 5.129l-1.118 1.125a711 711 0 0 0-2.915 2.953q-1.49 1.512-2.986 3.016a2000 2000 0 0 0-5.839 5.916c-1.34-.577-2.2-1.328-3.221-2.363l-.98-.988-1.048-1.068-1.642-1.655a1631 1631 0 0 1-3.456-3.5 1395 1395 0 0 0-2.849-2.881q-1.07-1.079-2.134-2.162l-.98-.988-.858-.871c-1.749-1.555-3.318-1.62-5.592-1.654l-.939-.023q-1.48-.033-2.961-.059l-2.011-.046q-2.461-.055-4.923-.101z" fill="#FCE839"/><path d="M23.438 150h69.141c3.441 22.616 3.441 22.616 2.173 24.341L93.75 175c-1.14-.514-1.934-1.061-2.802-1.957l-.704-.719-.749-.776-1.598-1.627q-1.251-1.279-2.496-2.564a500 500 0 0 0-2.425-2.475l-.739-.771-.719-.727-.616-.634c-2.938-2.288-5.553-2.433-9.217-2.418l-1.583-.012a553 553 0 0 0-4.273-.012c-1.492-.002-2.983-.012-4.475-.02a2182 2182 0 0 0-8.463-.029 3095 3095 0 0 1-9.638-.037q-9.908-.046-19.817-.067z" fill="#4BAC4E"/><path d="M133.203 80.078h10.156v55.469c-7.422 0-7.422 0-10.156-.391z" fill="#FAAF00"/><path d="m62.53 6.534.971-.006q1.613-.007 3.227-.006l2.313-.01q3.14-.012 6.283-.014 1.962-.002 3.923-.007a7624 7624 0 0 1 13.684-.016 3638 3638 0 0 0 12.764-.029q5.476-.02 10.953-.02 3.271 0 6.544-.015 3.077-.014 6.153-.005 1.13.001 2.259-.008c1.027-.008 2.055-.004 3.082.003l.905-.016c1.401.022 2.268.237 3.477.954.776 1.255.776 1.255.776 5.942H56.641c0-4.52 0-4.52 1.172-5.859 1.457-1.006 3.015-.894 4.718-.888" fill="#F3F3F3"/><path d="M186.328 113.281c.125 3.123-.357 6.037-.903 9.107q-.255 1.462-.508 2.925l-.134.775a253 253 0 0 0-.926 5.878 926 926 0 0 1-1.517 9.839l-.411 2.591q-.565 3.57-1.133 7.139c-1.059 6.638-2.066 13.275-2.934 19.941a241 241 0 0 1-1.544 10.214l-.241 1.414q-.232 1.358-.466 2.715a558 558 0 0 0-.825 4.991 38 38 0 0 1-.567 2.55h-6.641a2994 2994 0 0 1 3.872-26.543l.702-4.686q.277-1.854.557-3.707l.259-1.728a247 247 0 0 1 1.78-10.422c.335-1.795.586-3.594.814-5.405.422-3.221.891-6.434 1.391-9.643a812 812 0 0 0 1.582-10.548c.295-2.071.54-4.145.762-6.225 2.439-1.084 4.374-1.319 7.031-1.172" fill="#C32727"/><path d="M150 86.719h10.156c.097 5.504.176 11.008.223 16.513.022 2.556.053 5.112.102 7.668.047 2.467.072 4.933.084 7.4q.012 1.411.046 2.823c.175 7.385.175 7.385-1.39 9.348-1.116.726-2.094 1.168-3.361 1.56a63 63 0 0 0-1.404.694l-1.135.453-1.16.475c-.989.331-.989.331-2.161.331z" fill="#F9D433"/><path d="M144.531 158.203c2.695 1.779 4.448 4.377 5.469 7.422.356 3.195.101 5.83-1.563 8.594l-.434.813c-1.687 2.726-4.45 4.014-7.378 5.046-3.005.529-5.626.067-8.203-1.563-2.547-1.823-4.907-4.229-5.469-7.422-.279-3.641-.456-6.786 1.953-9.766 4.136-4.788 9.926-6.311 15.625-3.125" fill="#F2F2F2"/><path d="M116.797 86.719h9.766v46.094c-3.091-.883-3.091-.883-4.663-2.026l-.914-.652-1.064-.838-.775-.541c-2.176-1.65-2.176-1.65-2.634-3.079-.1-1.039-.103-2.039-.071-3.082l-.002-1.179c.002-1.279.027-2.557.051-3.836q.009-1.334.014-2.668c.012-2.336.043-4.671.077-7.007.032-2.385.046-4.771.062-7.156.034-4.677.089-9.353.153-14.03" fill="#FCD733"/><path d="M35.547 130.078c5.266 2.797 9.407 8.161 12.891 12.891v.391q-5.791.083-11.583.121a689 689 0 0 0-5.379.056q-2.598.037-5.197.045-.988.007-1.977.025c-6.222.115-6.222.115-8.834-1.958-1.432-1.455-2.254-2.87-2.357-4.954.304-2.737 1.384-4.07 3.444-5.757 4.096-3.031 14.4-2.351 18.992-.86" fill="#785447"/><path d="M89.453 130.078q.418 2.648.834 5.298l.284 1.803.407 2.589.13.816c.298 1.905.298 1.905.298 2.775H64.843l2.344-2.734 1.048-1.279c6.401-7.776 10.98-11.155 21.218-9.268" fill="#775447"/><path d="M135.938 36.719h7.031a2784 2784 0 0 1-1.875 17.414l-.457 4.157q-.223 2.05-.451 4.098l-.248 2.269a141 141 0 0 1-1.266 8.781h-6.641a49.4 49.4 0 0 1 .372-6.998l.119-.991q.126-1.052.255-2.103.34-2.799.67-5.598l.137-1.156c.549-4.671 1.015-9.352 1.472-14.033l.092-.93q.085-.856.166-1.712c.112-1.134.261-2.113.623-3.198" fill="#1465BE"/><path d="M166.797 96.875h9.766c.081 1.684.151 3.361.193 5.045q.027.857.072 1.714c.248 4.763.248 4.763-1.014 6.208-.935.607-.935.607-1.869 1.044-3.509 1.73-5.174 6.858-6.757 10.208h-.391z" fill="#FEB201"/><path d="M48.828 19.922a32698 32698 0 0 1 41.95-.064l.891-.001q7.14-.008 14.28-.025 7.325-.016 14.65-.02 4.521-.002 9.042-.016 3.465-.009 6.93-.006 1.423 0 2.845-.007 1.939-.006 3.878-.001l1.143-.01c2.421.016 3.804.345 5.563 2.104v8.203H46.484v-7.423h.391v7.031h96.484c.21-4.649.21-4.649-.781-8.984l-93.75-.391z" fill="#C6CACC"/><path d="M135.938 156.641c3.877-.24 6.971.182 10.083 2.637 2.099 1.955 3.79 4.647 4.111 7.526.034 2.859-.213 4.955-1.694 7.416l-.434.813c-1.681 2.714-4.452 4.036-7.379 5.046a19.5 19.5 0 0 1-4.688 0v-.391l.7.025c1.872-.041 1.872-.041 3.429-.972.547-.831.948-1.653 1.34-2.568l.464-1.03c1.939-4.937 1.596-10.139-.464-14.986-.561-1.228-.953-1.757-1.953-2.734-1.181-.324-2.294-.409-3.516-.391z" fill="#CAD2D6"/><path d="M100 100h10.156v15.234a35 35 0 0 1-2.393-2.661c-2.216-2.543-4.677-3.828-7.763-5.151z" fill="#F6AD00"/><path d="M95.313 73.438q2.6-.033 5.2-.049l1.471-.02c7.23-.038 14.129 1.809 19.891 6.318v.391l-.686.023q-1.549.057-3.098.123l-1.08.037c-1.782.078-3.285.152-4.902.989v-.781l-.604-.285a43 43 0 0 1-2.258-1.273c-4.42-2.639-8.78-4.446-13.934-5.083z" fill="#F17A00"/><path d="m45.044 83.081 1.338-.045c1.525.199 2.142.663 3.227 1.729.564 1.129.538 1.873.391 3.125-1.087 1.434-1.66 1.905-3.456 2.199q-.823.002-1.646-.026l-.837.013c-1.338-.019-2.134-.139-3.227-.93-.809-1.166-.822-1.868-.755-3.247.237-1.133.806-1.635 1.718-2.305 1.093-.546 2.029-.486 3.247-.513m22.144 6.763c1.095.561 1.865 1.084 2.734 1.953.218 1.653.224 2.436-.79 3.787-1.448 1.121-2.555 1.18-4.313 1.12l-.837.013c-1.339-.019-2.132-.137-3.223-.932-.737-1.057-.877-1.935-.795-3.218.27-1.08.806-1.755 1.711-2.395 1.754-.7 3.673-.627 5.513-.329" fill="#070400"/><path d="M87.109 83.203c1.095.561 1.865 1.084 2.734 1.953.173 1.529.17 2.435-.596 3.786-1.295 1.209-2.383 1.192-4.066 1.146l-.832.023c-1.538-.014-2.255-.219-3.474-1.173-.797-1.047-.797-1.047-1.065-2.415.278-1.417.602-2.12 1.787-2.977 1.744-.725 3.674-.641 5.513-.343" fill="#060300"/><path d="M70.313 128.125a77 77 0 0 1-4.965 5.394l-.726.724q-1.133 1.129-2.268 2.256l-1.549 1.543a3521 3521 0 0 1-3.774 3.755c-1.235-.535-1.56-.777-2.344-1.953l.537-.45c2.587-2.211 4.946-4.631 7.311-7.074a289 289 0 0 1 1.605-1.639l.95-.977c1.667-1.438 3.056-1.68 5.222-1.579" fill="#F7D332"/><path d="M132.422 6.641c4.894-.298 4.894-.298 6.787.684.998 1.995.756 3.745.635 5.957h-6.641l-.267-4.158c-.073-1.307-.073-1.307-.514-2.482" fill="#CDD6D9"/></svg>