<svg xmlns="http://www.w3.org/2000/svg" width="200" height="200" viewBox="0 0 200 200"><path d="M50 0h62.5v6.25l1.516-.011q7.086-.047 14.172-.07 3.643-.012 7.286-.037 3.518-.025 7.036-.03 1.339-.004 2.679-.017c1.255-.012 2.509-.013 3.764-.012l1.109-.017c3.469.021 6.543 1.041 9.107 3.436 2.458 2.734 3.455 5.598 3.427 9.263l.002.934q0 1.544-.007 3.087v2.218q0 3.006-.009 6.014-.006 3.143-.006 6.287-.004 5.951-.017 11.903a13060 13060 0 0 0-.017 13.552q-.015 13.938-.042 27.875l.921.173c7.318 1.539 13.966 7.074 19.392 11.936l.936.835c4.308 4.077 7.672 9.161 10.392 14.4l.716 1.355c1.42 2.794 2.441 5.645 3.313 8.655l.287.988c1.339 4.866 1.691 9.665 1.666 14.686l-.002.889c-.018 4.277-.196 8.334-1.292 12.49l-.362 1.552c-2.472 9.922-8.088 18.633-15.264 25.791l-1.002 1.016c-11.693 11.246-26.66 15.12-42.396 14.994-1.748-.011-3.497-.002-5.246.003-3.408.008-6.816-.001-10.224-.016a2771 2771 0 0 0-11.928-.015 6289 6289 0 0 1-21.28-.036q-10.31-.033-20.62-.032h-2.57q-11.772 0-23.544-.022-4.152-.007-8.305-.007-5.056-.001-10.112-.022a984 984 0 0 0-5.154-.01q-2.361.002-4.721-.015a176 176 0 0 0-1.704 0c-4.25.018-7.86-.461-11.064-3.454-2.418-2.689-3.454-5.535-3.433-9.145l-.004-.9q-.005-1.494 0-2.989l-.005-2.163q-.007-2.974-.004-5.947-.001-3.207-.008-6.413-.01-6.282-.009-12.566-.001-5.107-.005-10.213a31743 31743 0 0 1-.01-24.24v-.783l.001-6.295q0-12.273-.016-24.546-.018-13.791-.018-27.581.002-7.302-.01-14.602-.011-6.217-.004-12.433.006-3.172-.004-6.343-.009-2.904.002-5.809.002-1.05-.005-2.099c-.027-4.571.161-8.598 3.441-12.109 3.052-2.744 6.119-3.452 10.129-3.421h1.202a731 731 0 0 1 3.918.013l2.723.003q3.577.006 7.155.02 3.653.011 7.305.016 7.163.013 14.327.038z" fill="#EEE"/><path d="M156.528 88.834c.88.225 1.763.429 2.648.63 9.125 2.185 16.723 7.075 23.637 13.27l.936.835c4.308 4.077 7.672 9.161 10.392 14.4l.716 1.355c1.42 2.794 2.441 5.645 3.313 8.655l.287.988c1.339 4.866 1.691 9.665 1.666 14.686l-.002.889c-.018 4.277-.196 8.334-1.292 12.49l-.362 1.552c-2.472 9.922-8.088 18.633-15.264 25.791l-1.002 1.016c-5.285 5.083-11.764 8.754-18.529 11.484l-1.166.471c-13.046 5.043-28.96 3.655-41.659-1.943-5.884-2.727-11.02-6.235-15.769-10.637l-1.071-.987c-9.667-9.291-16.214-23.26-16.603-36.71-.258-16.475 4.708-30.691 16.112-42.772l.737-.8c12.961-13.586 34.224-19.299 52.275-14.663" fill="#48C8EE"/><path d="M50 0h62.5c0 30.39 0 30.39-3.537 34.168-2.318 1.824-5.373 3.374-8.353 3.39l-1.075.009-1.177.003-1.242.008q-2.039.011-4.077.016l-1.407.005q-3.688.012-7.375.017c-2.536.004-5.073.018-7.609.033q-2.928.015-5.857.015-1.402.003-2.804.014c-1.311.01-2.621.009-3.932.007l-1.163.015c-3.76-.029-7.078-1.445-9.767-4.106C49.537 28.71 50 25.352 50 18.75H12.5v127.344h41.016c.391.391.391.391.439 1.079l-.001.915.002 1.048-.004 1.158v1.213q-.001 1.995-.006 3.988l-.002 2.757q-.002 3.637-.009 7.273-.005 3.707-.008 7.415-.006 7.28-.019 14.561l.839-.011q10.134-.13 20.269-.191c3.268-.02 6.535-.048 9.802-.092q4.275-.059 8.551-.073c1.507-.005 3.014-.017 4.521-.045 11.38-.208 11.38-.208 15.23 3.365l.943.952c1.176.762 2.391 1.413 3.638 2.051l.94.487c3.061 1.545 6.205 2.723 9.485 3.712l1.236.374c3.183.871 6.429 1.227 9.702 1.579V200a42130 42130 0 0 1-55.194.086l-1.172.001q-9.392.011-18.785.034-9.639.022-19.279.026-5.947.003-11.894.022-4.079.012-8.158.009-2.353-.003-4.705.009-2.156.011-4.313.003-1.145 0-2.289.013c-3.839-.026-7.074-.765-9.941-3.443-2.418-2.689-3.454-5.535-3.433-9.145l-.004-.9q-.005-1.494 0-2.989l-.005-2.163q-.007-2.974-.004-5.947-.001-3.206-.008-6.413-.01-6.282-.009-12.566-.001-5.107-.005-10.213a31743 31743 0 0 1-.01-24.24v-.783l.001-6.295q0-12.273-.016-24.546-.018-13.791-.018-27.581.002-7.302-.01-14.602-.011-6.217-.004-12.433.006-3.172-.004-6.343-.009-2.904.002-5.809.002-1.05-.005-2.099c-.027-4.571.161-8.598 3.441-12.109C6.295 6.84 9.362 6.132 13.372 6.163h1.202a731 731 0 0 1 3.918.013l2.723.003q3.578.006 7.155.02 3.652.011 7.305.016 7.163.013 14.327.038z" fill="#EBCD93"/><path d="M50 0h62.5c0 30.39 0 30.39-3.537 34.168-2.318 1.824-5.373 3.374-8.353 3.39l-1.075.009-1.177.003-1.242.008q-2.039.011-4.077.016l-1.407.005q-3.688.012-7.375.017c-2.536.004-5.073.018-7.609.033q-2.928.015-5.857.015-1.402.003-2.804.014c-1.311.01-2.621.009-3.932.007l-1.163.015c-3.76-.029-7.078-1.445-9.767-4.106C46.018 23.918 50 12.114 50 0" fill="#E76E54"/><path d="M112.5 6.25a4558 4558 0 0 1 15.688-.081q3.643-.012 7.285-.037 3.518-.025 7.036-.03 1.339-.004 2.679-.017c1.255-.012 2.509-.013 3.764-.012l1.109-.017c3.469.021 6.543 1.041 9.107 3.436 2.458 2.734 3.455 5.598 3.427 9.263l.002.934q0 1.544-.007 3.087v2.218q0 3.006-.009 6.014-.006 3.143-.006 6.287-.004 5.951-.017 11.903a13060 13060 0 0 0-.017 13.552q-.014 13.938-.041 27.875l-3.516-.781L150 87.891V18.75h-37.5z" fill="#EBCE93"/><path d="M12.891 146.484h40.625v40.625c-3.076-2.637-3.076-2.637-4.502-4.061l-.978-.974-1.044-1.046-1.121-1.119q-1.51-1.508-3.019-3.019l-3.164-3.163q-2.652-2.652-5.302-5.305-3.068-3.07-6.138-6.138l-5.275-5.273q-1.574-1.575-3.149-3.148l-2.952-2.954q-.803-.804-1.607-1.605l-.954-.958-.836-.836c-.584-.635-.584-.635-.584-1.026" fill="#E76E54"/><path d="M166.469 126.121c1.97 1.123 2.977 2.253 3.844 4.347.336 2.307-.224 4.002-1.563 5.859-1.222 1.272-2.546 2.395-3.906 3.516l-1.031.853a431 431 0 0 1-2.126 1.732 240 240 0 0 0-3.679 3.079 351 351 0 0 1-5.737 4.761 293 293 0 0 0-3.638 3.052 352 352 0 0 1-5.737 4.761 296 296 0 0 0-3.638 3.052l-1.915 1.62q-.618.523-1.236 1.049a339 339 0 0 1-1.732 1.457l-1.001.844c-.949.691-1.814 1.062-2.905 1.475a2526 2526 0 0 1-5.298-5.255l-1.803-1.787a1041 1041 0 0 1-2.589-2.571l-.816-.804-.758-.758-.668-.662c-1.505-1.754-1.58-3.473-1.555-5.718.336-1.947 1.45-3.09 2.94-4.32 1.638-.819 3.685-.551 5.469-.391 2.346 1.059 4.09 3.238 5.859 5.078 1.339-.596 2.366-1.384 3.491-2.319l1.146-.951a826 826 0 0 0 4.41-3.727 319 319 0 0 1 5.088-4.209 294 294 0 0 0 3.638-3.052 345 345 0 0 1 6.836-5.663l.699-.563q1.113-.893 2.23-1.781l.71-.57c2.137-1.689 4.334-2.496 6.97-1.434" fill="#FDFEFE"/><path d="m68.907 49.945 1.357-.007 1.497-.001 1.57-.006q2.138-.007 4.274-.009l2.67-.005q4.177-.008 8.354-.011 4.822-.003 9.643-.02 3.727-.013 7.453-.013 2.226 0 4.452-.01 2.095-.009 4.19-.004 1.133 0 2.266-.01c2.618.013 4.656.046 6.666 1.922 1.636 2.139 1.944 3.379 1.701 6.041-.713 2.06-1.8 3.046-3.516 4.297-1.213.404-2.057.443-3.329.448l-1.359.009-1.492.003-1.571.008q-2.579.011-5.159.016l-1.777.005q-4.174.011-8.348.016-4.816.006-9.633.03-3.724.017-7.448.019a733 733 0 0 0-4.447.014q-2.093.014-4.185.007-1.131.001-2.263.015c-2.507-.015-4.135-.03-6.018-1.761-1.68-1.862-2.095-3.296-2.063-5.75.23-1.867 1.34-2.941 2.698-4.138 1.396-.991 2.118-1.1 3.819-1.104m-.475 25 1.039-.007 1.143-.001 1.201-.006q1.974-.008 3.948-.011l2.738-.007q2.875-.006 5.75-.008 3.683-.005 7.366-.023 2.83-.01 5.66-.01 1.358-.002 2.715-.009 1.9-.009 3.801-.003l1.133-.011c2.322.014 4.099.266 5.872 1.922 1.636 2.139 1.944 3.379 1.701 6.041-.713 2.06-1.8 3.046-3.516 4.297-1.083.361-1.736.442-2.854.448l-1.04.009-1.138.003-1.202.008q-1.971.011-3.941.016l-1.359.005q-3.56.012-7.12.017c-2.452.004-4.905.018-7.357.033q-2.828.014-5.655.015-1.357.003-2.712.014a384 384 0 0 1-3.795.007l-1.131.015c-2.204-.017-3.483-.278-5.225-1.761-1.68-1.862-2.095-3.296-2.063-5.75.23-1.867 1.34-2.941 2.698-4.138 1.232-.875 1.858-1.099 3.344-1.104" fill="#77959E"/><path d="m70.294 99.921 1.057-.007q1.109-.005 2.219-.008a446 446 0 0 0 3.382-.028l2.156-.006 1.017-.015c2.244.009 3.965.319 5.674 1.914 1.636 2.14 1.944 3.379 1.701 6.041-.713 2.06-1.8 3.046-3.516 4.297-1.043.348-1.666.445-2.738.46l-.948.015-1.021.009-1.055.01q-1.106.008-2.212.013c-1.124.007-2.248.024-3.371.041l-2.151.01-1.014.021c-2.13-.008-3.329-.336-5.021-1.75-1.68-1.862-2.095-3.296-2.063-5.75.23-1.867 1.34-2.941 2.698-4.138 1.713-1.217 3.162-1.119 5.206-1.129" fill="#78959E"/><path d="M37.5 125H50v12.5H37.5zm0-25H50v12.5H37.5zm0-25H50v12.5H37.5zm0-25H50v12.5H37.5z" fill="#77959E"/></svg>