<svg xmlns="http://www.w3.org/2000/svg" width="200" height="200" viewBox="0 0 200 200"><path d="M66.529 1.074c1.064.829 1.834 1.732 2.612 2.832l.516-.557.705-.737.687-.728C73.644-.352 76.44-.292 79.693-.081c4.69.488 8.939 3.171 12.22 6.402 2.616 2.328 5.087 2.382 8.47 2.276 1.25-.038 2.498-.031 3.748-.026a299 299 0 0 0 1.871.002c23.365-.009 46.382 12.225 62.677 28.365 2.131 2.152 4.071 4.42 5.93 6.812l.932 1.163a93.5 93.5 0 0 1 15.475 28.525l.33.986a96 96 0 0 1 2.892 10.805l.179.869c1.154 6.016 1.432 11.965 1.408 18.076l-.002 1.15c-.017 5.47-.179 10.789-1.292 16.16l-.191 1.005c-4.162 21.827-16.173 42.672-33.793 56.417l-1.164.934c-15.198 12.089-35.001 20.073-54.546 20.253l-1.05.012c-23.55.206-46.536-5.944-64.724-21.589l-1.294-1.079c-16.448-13.785-27.748-33.118-32.031-54.146l-.175-.855c-1.13-5.988-1.413-11.911-1.388-17.992l.002-1.149c.02-5.597.155-11.077 1.291-16.576l.235-1.164c2.493-11.986 6.955-23.097 13.62-33.379 1.638-2.588 2.745-5.206 3.771-8.084 2.043-5.727 4.782-11.039 7.973-16.205 1.355-2.201 2.575-4.441 3.747-6.745 3.994-7.754 9.644-14.721 17.383-18.945l.721-.396c3.908-2.039 9.716-3.255 13.609-.727" fill="#CBDD3F"/><path d="M94.531 8.594c27.639-.448 52.546 7.69 72.83 27.054a78 78 0 0 1 7.248 8.102l.932 1.163a93.5 93.5 0 0 1 15.475 28.525l.33.986a96 96 0 0 1 2.892 10.805l.179.869c1.154 6.016 1.432 11.965 1.408 18.076l-.002 1.15c-.017 5.47-.179 10.789-1.292 16.16l-.191 1.005c-2.816 14.769-9.051 28.469-18.168 40.402a73 73 0 0 1-2.441-3.174c-2.004-2.095-4.348-2.424-7.128-2.488l-1.051-.007-.991-.02c-1.207-.022-2.415-.035-3.623-.049l-8.204-.122v-27.344h-15.625v27.344c-8.594.073-8.594.073-11.288.081l-2.139.033-1.102-.005c-2.995.064-4.958.968-7.034 3.13-.927 1.397-1.751 2.835-2.557 4.305l-.487.877a647 647 0 0 0-1.174 2.126h-.781l-.363-.692a537 537 0 0 0-1.663-3.116l-.571-1.09c-1.934-3.582-3.098-4.292-7.168-5.648v-31.641c5.273.879 5.273.879 7.129 1.416l1.08.309.775.228-.013-1.165q-.059-5.448-.088-10.896-.014-2.8-.046-5.601a610 610 0 0 1-.038-5.41q-.006-1.03-.021-2.059c-.098-6.662-.098-6.662 2.16-9.243 1.672-1.549 3.065-2.461 5.371-2.393l.946.021.713.027c5.302-21.888-.322-43.672-11.865-62.598l-.443-.721c-1-1.646-1.896-3.324-2.763-5.043-2.276-4.5-5.058-8.412-8.309-12.257-.839-1.022-.839-1.022-.839-1.412" fill="#FEC739"/><path d="M69.141 32.813c.975 1.214 1.65 2.466 2.344 3.857 1.732 3.268 3.986 6.111 6.416 8.889 1.2 1.384 1.546 2.243 1.787 4.05.443.688.443.688 1.172 1.172.988.14.988.14 2.1.122 2.448.141 4.176.916 6.348 2.002 4.555 2.109 9.605 2.951 14.6 2.563 1.289-.547 1.289-.547 2.344-1.172 2.045-.219 3.342.067 5.078 1.172 1.53 1.544 1.397 3.172 1.388 5.25-.164 4.691-2.427 8.71-5.294 12.328l-.903 1.245c-1.807 1.891-3.929 3.648-6.519 4.223l-.122.645c-.458 2.248-1.143 4.282-2.051 6.386l-.414.967c-2.341 5.362-4.945 10.862-9.134 15.051-.102.926-.102.926-.063 2.011l.014 1.273.023 1.382.008 2.887c.005 1.521.017 3.04.045 4.56a222 222 0 0 1 .021 4.395l.043 1.368c-.023 1.893-.054 3.116-1.325 4.58-1.898 1.545-3.977 2.795-6.189 3.84l-.811.394c-6.428 3.052-12.751 3.416-19.502 1.046-3.648-1.461-6.975-3.459-9.766-6.25a36 36 0 0 1-.024-1.977l.011-1.088.015-.843c-1.654.284-3.305.58-4.956.879l-1.418.243-1.37.252-1.259.223c-1.381.427-2.121.858-3.107 1.92-.393 1.977-.455 3.94-.471 5.949l-.012.936q-.018 1.519-.032 3.037l-.025 2.116q-.032 2.775-.06 5.551-.03 2.836-.063 5.671-.061 5.556-.117 11.113l-.736.233-.963.312-.955.306c-.955.355-1.647.84-2.425 1.493h-.781l-.29.786c-.614 1.458-1.35 2.829-2.103 4.219l-.441.82-1.072 1.988c-1.199-.522-1.883-1.04-2.675-2.077l-.612-.796-.644-.863-.679-.902c-8.683-11.684-14.867-24.965-17.779-39.259l-.175-.855c-1.13-5.988-1.413-11.911-1.388-17.992l.002-1.149c.02-5.597.155-11.077 1.291-16.576l.235-1.164C8.374 72.718 13.355 60.87 20.703 50c.449 1.348.314 1.763-.057 3.104l-.313 1.18q-.329 1.203-.662 2.405c-1.521 5.741-1.865 11.517-1.848 17.433l.001.926c.043 11.582 2.985 22.52 11.277 31.032 5.933 5.649 13.772 9.174 21.68 11.108q.032-3.147.005-6.294-.005-1.069.007-2.137c.164-4.862.164-4.862-1.895-9.106a63 63 0 0 0-1.632-1.604c-3.587-5.073-6.276-10.925-8.252-16.797-.577-1.669-1.035-2.964-2.612-3.906l-.803-.38c-4.357-2.099-7.252-6.989-8.804-11.411-.983-3.083-1.838-6.063-.355-9.084 1.42-1.573 2.258-2.116 4.395-2.319 1.143-.014 1.651.181 2.68.743 3.883 1.785 10.205-.102 14.142-1.378 1.428-.56 2.813-1.214 4.205-1.855 1.575-.609 2.981-.754 4.66-.762 1.137-.148 1.655-.482 2.462-1.289l.098-1.44c.154-1.928 1.138-2.647 2.513-3.906 2.85-2.845 4.807-6.539 6.642-10.089.513-.971.513-.971.904-1.361" fill="#FAB888"/><path d="M66.529 1.074c1.064.829 1.834 1.732 2.612 2.832l.516-.557.705-.737.687-.728C73.644-.352 76.44-.292 79.693-.081c5.797.603 11.72 4.757 15.517 9.05a40 40 0 0 1 1.064 1.488c.619.895 1.293 1.734 1.976 2.581 2.401 3.006 4.25 6.224 6.047 9.618l.399.754.391.739.388.732q.386.73.77 1.461a72 72 0 0 0 2.449 4.25c9.828 15.853 15.566 36.793 11.463 55.32a49 49 0 0 1-1.406 4.712l-.659.017c-2.686.168-4.693.873-6.507 2.919-1.798 2.416-1.554 4.66-1.453 7.562-.021 4.994-.021 4.994-1.208 6.535-.997.843-1.961 1.522-3.121 2.122-.766.397-1.488.839-2.22 1.296-4.961 3.031-10.025 4.877-15.692 6.113q-.087-3.262-.129-6.525-.017-1.109-.048-2.218a186 186 0 0 1-.052-3.197l-.037-.993c-.001-2.19.473-3.285 2.021-4.843l.588-.584c3.83-5.229 6.698-11.174 8.594-17.358.64-2.038 1.252-3.32 3.15-4.443l.966-.423c4.359-1.955 6.661-6.8 8.348-11.004.69-1.851.926-3.432.964-5.394l.044-.838c.026-1.564-.121-2.248-1.103-3.486-1.641-1.266-2.914-1.331-4.947-1.193l-1.025.586c-4.495 1.998-10.655.079-15.014-1.563-1.209-.486-2.345-.991-3.488-1.616-1.281-.58-2.148-.649-3.543-.654-2.534-.154-2.534-.154-3.589-1.343-.684-1.27-.684-1.27-.635-2.221-.06-1.229-.271-1.314-1.147-2.124-3.736-3.486-6.424-8.008-8.668-12.551l-.546 1.103c-2.073 4.087-4.422 8.046-7.877 11.129-.999 1.101-1.07 1.28-1.172 2.661-.171 1.513-.171 1.513-.903 2.466-1.228.614-1.814.691-3.149.757-1.882.103-3.246.554-4.956 1.343-4.833 2.193-10.437 3.526-15.772 3.197a38 38 0 0 1-2.344-1.172c-1.499-.277-2.809-.133-4.223.464-1.232 1.02-1.878 1.83-2.165 3.436-.305 4.895 1.937 9.863 4.825 13.679l.659.874c1.391 1.709 2.881 2.902 4.765 4.039 2.305 1.551 2.903 3.263 3.78 5.805 2.414 6.627 5.648 13.899 10.718 18.969.068 1.149.09 2.261.076 3.409l-.003 1.021q-.008 1.618-.024 3.236l-.011 2.191q-.014 2.688-.038 5.377c-9.394-1.243-18.933-6.797-24.905-14.123-6.036-8.12-8.54-17.967-8.429-27.958q.012-1.33.005-2.66a72 72 0 0 1 2.274-17.954l.204-.807c2.492-9.789 6.674-18.861 12.094-27.371.978-1.629 1.829-3.309 2.693-5.001 4.042-7.816 9.664-14.85 17.48-19.116l.721-.396c3.908-2.039 9.716-3.255 13.609-.727" fill="#876D92"/><path d="m117.623 90.521 1.485-.01 1.627.001q.858-.003 1.715-.008 2.33-.01 4.659-.009 1.456 0 2.913-.004 5.086-.011 10.171-.01 4.734 0 9.467-.02a2057 2057 0 0 1 8.137-.014q2.429.001 4.856-.01 2.286-.011 4.572-.002.836.001 1.672-.006c3.484-.027 6.641.055 9.289 2.555l.525.792.549.795c.711 1.236.868 2.252.875 3.648l.009 1.075.003 1.177.008 1.242q.011 2.039.016 4.077l.005 1.407q.012 3.688.017 7.375c.004 2.536.018 5.073.033 7.609q.015 2.928.015 5.857.003 1.402.014 2.804c.01 1.311.009 2.621.007 3.932l.015 1.163c-.02 2.693-.486 5.169-2.299 7.263-2.667 2.399-5.617 2.22-8.993 2.189l-1.409-.003q-2.22-.007-4.441-.024l-3.017-.011q-3.691-.014-7.384-.038v-15.625h-15.625v27.344c-8.594.073-8.594.073-11.288.081l-2.139.033-1.102-.005c-2.995.064-4.958.968-7.034 3.13-.927 1.397-1.751 2.835-2.557 4.305l-.487.877a647 647 0 0 0-1.174 2.125h-.781l-.363-.692a537 537 0 0 0-1.663-3.116l-.571-1.09c-1.934-3.582-3.098-4.292-7.168-5.648v-31.641c5.273.879 5.273.879 7.129 1.416l1.08.309.775.228-.013-1.165q-.059-5.448-.088-10.896-.014-2.8-.046-5.601a610 610 0 0 1-.038-5.41q-.006-1.03-.021-2.059c-.098-6.662-.098-6.662 2.16-9.243 1.901-1.762 3.313-2.44 5.904-2.448" fill="#D9E6FD"/><path d="M94.531 8.594c27.639-.448 52.546 7.69 72.83 27.054a78 78 0 0 1 7.248 8.102l.932 1.163a93.5 93.5 0 0 1 15.475 28.525l.33.986a96 96 0 0 1 2.892 10.805l.179.869c1.154 6.016 1.432 11.965 1.408 18.076l-.002 1.15c-.017 5.47-.179 10.789-1.292 16.16l-.191 1.005c-2.816 14.769-9.051 28.469-18.168 40.402a73 73 0 0 1-2.441-3.174c-2-2.091-4.34-2.423-7.114-2.487l-1.065-.008-1.116-.021c-1.166-.021-2.332-.034-3.498-.048l-2.385-.04c-1.939-.034-3.879-.057-5.818-.082v-11.719l4.491-.03q2.164-.023 4.328-.051 1.499-.016 2.998-.025 2.16-.015 4.32-.047l1.343-.001c3.123-.057 5.78-.483 8.082-2.727 1.463-2.457 1.508-4.713 1.505-7.494l.008-1.244q.01-2.032.01-4.064l.008-2.832q.007-2.966.006-5.932c0-2.531.011-5.061.024-7.592q.012-2.923.01-5.847.002-1.399.011-2.798c.008-1.306.005-2.612.001-3.918l.013-1.161c-.026-2.881-.623-5.047-2.693-7.118-1.688-1.045-3.253-1.427-5.206-1.631l-.954-.101-.727-.074-.053-1.084a884 884 0 0 0-.216-4.08q-.047-.873-.09-1.748a74.6 74.6 0 0 0-1.594-12.229l-.228-1.065c-4.057-18.034-15.664-33.4-31.076-43.329-8.401-5.232-18.563-9.137-28.496-9.691-7.897-.477-7.897-.477-9.668-2.113-1.015-1.206-1.694-2.556-2.408-3.958-.623-.809-1.287-1.57-1.953-2.344z" fill="#FEDC40"/><path d="M50.781 119.141v37.891h16.406c3.627 3.336 3.627 3.336 4.696 5.819.544 1.171 1.309 2.033 2.188 2.97l.835.898c5.796 5.695 13.877 11.218 21.968 12.969a22 22 0 0 1-1.578 2.754c-.993 1.739-1.001 3.347-1.004 5.313l-.02 1.066c-.019 1.114-.027 2.229-.035 3.343q-.016 1.138-.035 2.277a736 736 0 0 0-.063 5.559c-3.566-.183-7.077-.41-10.596-1.05l-1.143-.205c-17.47-3.266-33.827-11.222-46.853-23.354A292 292 0 0 0 33.936 174c-2.386-2.087-4.484-4.133-6.202-6.812a305 305 0 0 1 1.978-3.784l.552-1.08c1.117-2.092 2.209-3.999 4.502-4.902 1.039-.159 2.081-.27 3.125-.391l-.003-1.183q-.012-5.526-.018-11.052-.003-2.841-.009-5.681-.006-2.743-.008-5.486l-.004-2.09q-.004-1.467-.004-2.934l-.004-.867c.009-4.596.009-4.596 1.405-6.173 1.539-1.121 3.22-1.432 5.064-1.766l.971-.199c1.923-.376 3.482-.46 5.498-.46" fill="#AFC728"/><path d="M20.703 50c.449 1.348.314 1.763-.057 3.104l-.313 1.18q-.329 1.203-.662 2.405c-1.521 5.741-1.865 11.517-1.848 17.433l.001.926c.043 11.582 2.985 22.52 11.277 31.032 5.88 5.599 13.796 9.268 21.68 11.108v1.953l-.901.155c-1.353.235-2.704.48-4.055.724l-1.418.243-1.37.252-1.259.223c-1.381.427-2.121.858-3.107 1.92-.393 1.977-.455 3.94-.471 5.949l-.012.936q-.018 1.519-.032 3.037l-.025 2.116q-.032 2.775-.06 5.551-.03 2.836-.063 5.671-.061 5.556-.117 11.113l-.736.233-.963.312-.955.306c-.955.355-1.647.84-2.425 1.493h-.781l-.29.786c-.614 1.458-1.35 2.829-2.103 4.219l-.441.82-1.072 1.988c-1.199-.522-1.883-1.04-2.675-2.077l-.612-.796-.644-.863-.679-.902c-8.683-11.684-14.867-24.965-17.779-39.259l-.175-.855c-1.13-5.988-1.413-11.911-1.388-17.992l.002-1.149c.02-5.597.155-11.077 1.291-16.576l.235-1.164C8.374 72.718 13.355 60.87 20.703 50" fill="#FEDC40"/><path d="M50.781 52.734v5.859l1.831-.098c1.449-.002 1.975.037 3.247.806 1.099 1.202 1.676 1.988 1.685 3.613l-.122 1.539c-1.172.781-1.172.781-2.295.659l-1.221-.268c-1.358-.291-1.358-.291-2.734-.391 1.203 7.864 2.827 15.435 6.25 22.656l.732-.952c.83-1.001.83-1.001 1.612-1.391a31 31 0 0 1 1.815-.075l1.142-.019q2.586-.027 5.173-.042a294 294 0 0 0 2.729-.032 322 322 0 0 1 3.932-.036l1.231-.027c2.825.009 2.825.009 4.356 1.168.75 1.065.963 1.434.79 2.702-.516 2.902-2.596 5.001-4.814 6.811-2.6 1.744-5.848 2.406-8.931 2.051a21.7 21.7 0 0 1-5.859-2.734c2.98 6.064 8.512 12.522 14.844 15.234 3.967.079 7.002-3.361 9.715-5.891.83-.751.83-.751 2.002-1.532q.147 4.335.215 8.674.029 1.474.08 2.948c.048 1.416.07 2.83.087 4.247l.061 1.323c.001 1.863-.026 3.033-1.281 4.472-1.902 1.548-3.978 2.802-6.193 3.848l-.811.394c-6.428 3.052-12.751 3.416-19.502 1.046-3.648-1.461-6.975-3.459-9.766-6.25a33 33 0 0 1-.03-1.919l.007-1.241.01-1.355q-.002-1.413-.007-2.827c-.004-1.489-.004-2.977.011-4.466a268 268 0 0 0-.004-4.304l.027-1.334c-.052-3.428-1.215-5.107-3.529-7.555-3.587-5.073-6.276-10.925-8.252-16.797-.577-1.669-1.035-2.964-2.612-3.906l-.803-.38c-4.357-2.099-7.252-6.989-8.804-11.411-.983-3.083-1.838-6.063-.355-9.084 1.42-1.573 2.258-2.116 4.395-2.319 1.143-.014 1.651.181 2.68.743 3.988 1.834 10.095-.229 14.142-1.378l1.094-.441c.858-.338.858-.338 2.03-.338" fill="#F8A273"/><path d="m48.828 4.297.781.391-.602.604c-3.162 3.34-4.908 7.081-6.038 11.505l-.33 1.029c-2.659 9.231-.734 19.451 3.455 27.877h.781l.391-.391c1.73-.121 3.466-.109 5.2-.122l1.479-.034 1.421-.01 1.307-.017c1.406.227 1.857.619 2.702 1.746.22 1.367.22 1.367 0 2.734-.708.928-.708.928-1.953 1.563a31 31 0 0 1-1.929.146c-1.882.103-3.246.554-4.956 1.343-4.832 2.194-10.436 3.527-15.771 3.198a38 38 0 0 1-2.344-1.172c-1.499-.277-2.809-.133-4.223.464-1.232 1.02-1.878 1.83-2.165 3.436-.305 4.895 1.937 9.863 4.825 13.679l.659.874c1.391 1.709 2.881 2.902 4.765 4.039 2.305 1.551 2.903 3.263 3.78 5.805 2.414 6.627 5.648 13.899 10.718 18.969.068 1.149.09 2.261.076 3.409l-.003 1.021q-.008 1.618-.024 3.236l-.011 2.191q-.014 2.688-.038 5.377c-9.394-1.243-18.933-6.797-24.905-14.123-6.036-8.12-8.54-17.967-8.429-27.958q.012-1.33.005-2.66a72 72 0 0 1 2.274-17.954l.204-.807c2.492-9.789 6.674-18.861 12.094-27.371.978-1.629 1.829-3.309 2.693-5.001 3.409-6.592 7.954-12.74 14.111-17.016" fill="#553E5A"/><path d="M137.109 129.688h15.625v27.344c5.387-.046 5.387-.046 10.774-.105l2.043-.009 1.051-.018c2.602-.001 4.862.328 6.943 2.034l.648.784.67.778c.625.989.883 1.611.917 2.786-.58.966-.58.966-1.465 1.978l-.981 1.132-1.068 1.186-.539.605c-2.215 2.479-4.47 4.92-6.882 7.208l-.81.814c-2.768 2.534-4.97 2.747-8.631 2.666q-.82-.001-1.641.002a293 293 0 0 1-4.42-.039c-1.544-.02-3.088-.022-4.633-.025a1190 1190 0 0 1-8.757-.066 1698 1698 0 0 0-9.976-.068 3894 3894 0 0 1-20.507-.157c.641-1.641 1.4-3.188 2.228-4.741l.427-.804q.446-.841.895-1.681.674-1.267 1.345-2.535c5.344-10.07 5.344-10.07 9.169-11.723.855-.094.855-.094 1.791-.089h1.081l1.126.013 1.043.002q1.923.008 3.846.025l8.688.046z" fill="#876C92"/><path d="M106.25 27.344c1.564 1.367 2.441 2.961 3.418 4.761l.516.941c8.821 16.294 14.646 36.878 9.347 55.235a93 93 0 0 1-.781 2.344l-.659.017c-2.686.168-4.693.873-6.507 2.919-1.798 2.416-1.554 4.66-1.453 7.562-.021 4.994-.021 4.994-1.208 6.535-.997.843-1.961 1.522-3.121 2.122-.766.397-1.488.839-2.22 1.296-4.96 3.03-10.024 4.876-15.691 6.112q-.087-3.262-.129-6.525-.017-1.109-.048-2.218a186 186 0 0 1-.052-3.197l-.037-.993c-.001-2.19.473-3.285 2.021-4.843l.588-.584c3.83-5.229 6.698-11.174 8.594-17.358.64-2.038 1.252-3.32 3.15-4.443l.966-.423c4.359-1.955 6.661-6.8 8.348-11.004.69-1.851.926-3.432.964-5.394l.044-.838c.036-.939.036-.939-.191-2.336l-.975-.866c-1.279-1.423-1.238-2.557-1.199-4.377l-.006-.969c-.007-1.022 0-2.043.008-3.066.044-6.697-.726-12.446-3.314-18.675-.373-.954-.373-.954-.373-1.735" fill="#553F5B"/><path d="m50.781 123.047 3.125 2.344c2.849 1.865 5.723 3.313 8.984 4.297l.871.267c5.953 1.572 12.097.077 17.488-2.611a73 73 0 0 0 4.297-2.734l2.344-1.563v33.984H50.781z" fill="#FEFEFE"/><path d="m102.111 178.422 1.561-.004 1.709.009h1.802q2.445 0 4.891.009 2.555.006 5.111.006 4.839.004 9.679.017 5.51.012 11.018.017 11.333.013 22.666.039c-2.131 2.152-2.131 2.152-3.391 3.046l-.796.567-.842.587-.895.623c-11.936 8.241-25.425 13.697-39.78 15.881l-1.405.22c-4.167.591-8.259.654-12.462.611l-2.004-.011q-2.416-.013-4.832-.038-.072-3.335-.107-6.671-.015-1.133-.04-2.266a223 223 0 0 1-.043-3.27l-.03-1.013c-.001-2.442.637-4.021 2.174-5.921 1.949-1.806 3.361-2.442 6.017-2.438m-64.221-53.031v31.641l-3.516 1.172c-.914.611-.914.611-1.563 1.172h-.781l-.29.786c-.614 1.458-1.35 2.829-2.103 4.219l-.441.82-1.072 1.987c-1.199-.522-1.883-1.04-2.675-2.077l-.612-.796-.644-.863-.679-.902c-6.445-8.675-12.101-18.454-14.921-28.956 8.347-3.839 20.001-8.203 29.297-8.203" fill="#DEEEFE"/><path d="m50.781 102.344.915.922c4.741 4.711 10.544 8.559 17.42 8.648 6.977-.107 12.23-3.632 17.07-8.311.923-.869.923-.869 1.705-1.259q.147 4.335.215 8.674.029 1.474.08 2.948c.048 1.416.07 2.83.087 4.247l.061 1.323c.001 1.863-.026 3.033-1.281 4.472-1.902 1.548-3.978 2.802-6.193 3.848l-.811.394c-6.428 3.052-12.751 3.416-19.502 1.046-3.648-1.461-6.975-3.459-9.766-6.25a33 33 0 0 1-.045-1.945v-1.256l.006-1.366.002-1.391q.004-2.21.012-4.419l.005-2.987q.007-3.67.019-7.34" fill="#EE8E5E"/><path d="M100.781 125.391c5.273.879 5.273.879 7.129 1.416l1.08.309.776.228.011 1.062q.027 1.97.07 3.94.016.849.025 1.698c-.006 5.041-.006 5.041 2.557 9.253l.682.429.685.45c1.331.719 2.452.803 3.935.826l1.304.023 1.405.02 1.44.025q2.28.038 4.561.071l3.089.051q3.79.062 7.58.12v11.719l-3.735.017q-1.801.018-3.604.043a300 300 0 0 1-2.493.017 293 293 0 0 0-3.596.038l-1.116-.005c-2.988.065-4.948.974-7.02 3.13-.927 1.397-1.751 2.835-2.557 4.305l-.487.877a647 647 0 0 0-1.174 2.125h-.781l-.363-.692a537 537 0 0 0-1.663-3.116l-.571-1.09c-1.934-3.582-3.098-4.292-7.168-5.648z" fill="#FEFEFE"/><path d="M50.781 119.141q.069 8.934.102 17.868.013 4.149.046 8.297.031 4.004.038 8.009.006 1.527.021 3.054c.014 1.427.016 2.854.015 4.281l.021 1.272c-.018 2.59-.404 4.488-2.196 6.439-1.858 1.325-3.555 1.898-5.859 1.563-2.191-.864-3.545-2.213-4.723-4.254-.389-.903-.453-1.512-.452-2.491l-.005-1.001.007-1.088-.002-1.153q0-1.889.007-3.778v-2.627q.001-2.755.009-5.51.009-3.527.008-7.054 0-2.714.005-5.428l.002-2.6q.002-1.82.009-3.641l-.001-1.081c.025-5.084.025-5.084 1.414-6.652 1.539-1.121 3.22-1.432 5.064-1.766l.971-.199c1.867-.365 3.591-.47 5.498-.46" fill="#91AF14"/><path d="m48.828 4.297.781.391-.602.604c-3.162 3.34-4.908 7.081-6.038 11.505l-.33 1.029c-2.659 9.231-.734 19.451 3.455 27.877h.781l.391-.391c1.73-.121 3.466-.109 5.2-.122l1.479-.034 1.421-.01 1.307-.017c1.406.227 1.857.619 2.702 1.746.22 1.367.22 1.367 0 2.734-.708.928-.708.928-1.953 1.563a31 31 0 0 1-1.929.146c-1.882.103-3.246.554-4.956 1.343-4.832 2.194-10.436 3.527-15.771 3.198l-1.082-.584c-1.834-.854-3.567-.683-5.559-.588q-.044-2.76-.064-5.52a261 261 0 0 0-.024-1.869c-.09-5.583.58-10.631 2.481-15.927l.613-1.762.269-.755c.253-.727.253-.727.41-1.483 2.357-8.612 9.725-18.01 17.018-23.074" fill="#6C5475"/><path d="M87.891 119.141q.828.089 1.655.18l.931.101c1.394.165 2.771.396 4.152.647l.806.134c1.613.294 2.852.693 4.175 1.672.819 1.228.88 1.514.886 2.913l.01 1.08-.001 1.182.008 1.248q.01 2.047.01 4.094l.008 2.842q.007 2.982.006 5.963c0 2.547.011 5.094.024 7.641q.012 2.936.01 5.872.002 1.408.011 2.817c.008 1.314.005 2.627.001 3.941l.013 1.175c-.02 2.232-.239 3.573-1.766 5.324-2.083 1.573-3.626 2.211-6.25 1.953-2.083-.902-3.772-2.166-4.688-4.297-.223-1.512-.198-3.008-.177-4.533l-.001-1.375c.001-1.496.013-2.993.025-4.489q.005-1.559.007-3.116.009-3.68.033-7.359c.018-2.793.026-5.587.034-8.38q.025-8.616.079-17.232" fill="#91AE12"/><path d="m145.892 106.175 1.071-.019q2.418-.027 4.836-.042 1.275-.01 2.551-.032c1.227-.021 2.453-.03 3.68-.036l1.149-.027c2.652.009 2.652.009 4.138 1.196l.746.988.391.391c.047.577.066 1.156.075 1.734l.019 1.118q.027 2.54.042 5.08.01 1.34.032 2.68c.021 1.287.03 2.572.036 3.859l.027 1.209c-.009 2.788-.009 2.788-1.196 4.289l-.989.734-.391.391c-.577.047-1.156.066-1.734.075l-1.118.019q-2.54.027-5.08.042-1.34.01-2.68.032c-1.287.021-2.572.03-3.859.036l-1.209.027c-2.788-.009-2.788-.009-4.289-1.196l-.734-.989-.391-.391a27 27 0 0 1-.075-1.734l-.019-1.118q-.027-2.54-.042-5.08a283 283 0 0 0-.032-2.68 317 317 0 0 1-.036-3.859l-.027-1.209c.009-2.773.009-2.773 1.148-4.289 1.354-.958 2.343-1.173 3.961-1.199" fill="#FEFEFF"/><path d="m50.781 123.047 3.125 2.344c2.849 1.865 5.723 3.313 8.984 4.297l.871.267c5.953 1.572 12.097.077 17.488-2.611a73 73 0 0 0 4.297-2.734l2.344-1.563v33.984h-.391l-.391-26.563-5.078 3.125c-7.396 3.625-14.461 3.833-22.266 1.563 1.23 6.995 3.092 13.158 6.392 19.455.641 1.248.641 1.248 1.032 2.42H50.782z" fill="#DEEEFE"/><path d="M137.109 129.688h15.625v27.344h-15.625z" fill="#6B5374"/><path d="M87.109 104.688h.391q.086 2.509.167 5.019l.057 1.699q.084 2.478.144 4.958c.023.829.057 1.656.09 2.484l.043 1.575.05 1.406c-.194 1.482-.618 1.973-1.722 2.952-1.074.699-1.074.699-2.344 1.391l-.736.41c-6.264 3.454-12.581 5.414-19.748 3.667-4.616-1.356-8.813-3.478-12.329-6.811l-.391-.781.713-.017c11.207-.301 23.13-1.593 31.318-10.139 2.115-2.301 3.203-4.908 4.297-7.813" fill="#F8A373"/><path d="M121.215 156.943h.995l1.063.013 1.097.003q1.732.007 3.463.024l2.35.011q2.878.014 5.755.038l-.711.352c-4.464 2.248-6.209 6.645-8.444 10.902l-.746 1.414-.37.703a93 93 0 0 1-.754 1.387c-.622 1.125-1.148 2.211-1.597 3.418-.6 1.434-1.041 2.286-2.221 3.307-2.564.763-5.35.438-7.983.293q-1.111-.035-2.221-.064a218 218 0 0 1-5.421-.229c.617-1.649 1.401-3.19 2.228-4.741l.427-.804q.446-.841.895-1.681.674-1.267 1.345-2.535c6.282-11.839 6.282-11.839 10.853-11.811" fill="#6C5475"/><path d="M101.293 178.427h.995l1.063.013 1.097.003q1.732.007 3.463.024l2.35.011q2.878.014 5.755.038l-.738.366c-.761.383-1.477.781-2.192 1.245l-.671.418c-2.088 2.116-2.492 4.607-2.496 7.468l-.02 1.012c-.019 1.054-.027 2.109-.036 3.163q-.016 1.08-.035 2.159a657 657 0 0 0-.062 5.262c-1.493.498-2.893.439-4.448.429l-.967-.002a1036 1036 0 0 1-3.056-.012q-1.037-.004-2.073-.005-2.54-.007-5.08-.019-.072-3.335-.107-6.671-.015-1.133-.04-2.266a223 223 0 0 1-.043-3.27l-.03-1.013c-.001-2.442.637-4.021 2.174-5.921 1.587-1.471 3.003-2.445 5.199-2.432" fill="#D3DCFA"/><path d="M50.391 141.406h.391q.069 4.579.102 9.159.013 2.127.046 4.253.031 2.056.038 4.111c.005.773.021 1.546.036 2.318.001 2.81-.143 5.021-2.174 7.112-1.865 1.32-3.549 1.898-5.859 1.563-2.194-.866-3.439-2.21-4.724-4.166-.512-1.32-.45-2.594-.427-3.989l.008-.975c.07-6.203.277-12.405.456-18.605l.72.92c1.253 1.537 2.275 2.447 4.283 2.774 2.039.109 3.574.092 5.202-1.228.957-.98 1.549-1.905 1.904-3.247m37.5.391.523.716c.952 1.244 1.968 2.483 3.383 3.191 2.17.198 4.07.298 6.055-.659.962-.89 1.733-1.827 2.539-2.857q.055 4.523.081 9.046.012 2.1.037 4.201.025 2.029.03 4.057.008 1.146.029 2.294c.001 4.345.001 4.345-1.739 6.183-2.083 1.573-3.626 2.211-6.25 1.953-2.065-.894-3.834-2.152-4.688-4.297-.219-1.814-.182-3.616-.152-5.441l.007-1.593q.01-2.087.038-4.173c.016-1.422.023-2.844.031-4.266q.025-4.177.076-8.356" fill="#76930A"/><path d="m50.781 123.047.581.46c3.504 2.752 7.256 4.891 11.529 6.18l.871.267c5.953 1.572 12.097.077 17.488-2.611a73 73 0 0 0 4.297-2.734l2.344-1.563v33.984H87.5l-.391-26.563-5.078 3.125c-6.646 3.257-13.961 4.3-21.094 1.953-3.568-1.37-7.423-3.126-10.156-5.859a91 91 0 0 1-.024-3.345l.005-.955q.008-1.171.019-2.341" fill="#D3DBF5"/><path d="M109.766 106.25v21.094c-7.813-1.563-7.813-1.563-9.375-1.953l-.42-2.327c-.518-1.143-1.211-1.398-2.315-1.97-1.125-.331-1.125-.331-2.327-.542l-1.316-.255-1.362-.253-1.384-.266q-1.688-.323-3.376-.637v-1.953l.654-.202c5.08-1.583 17.202-10.736 21.221-10.736" fill="#FDC739"/><path d="M110.254 54.785c1.115.709 1.589 1.114 2.246 2.246.801 5.345-.733 9.878-3.735 14.282a105 105 0 0 1-1.343 1.734l-.903 1.245c-1.704 1.783-3.769 3.437-6.128 4.223l.131-.672c1.124-5.781 1.124-5.781 2.059-11.596.154-1.013.154-1.013.362-1.889.166-.973.225-1.866.252-2.85l.028-.98q.025-1.012.037-2.023c.082-2.455.082-2.455.982-3.436 2.085-.949 3.852-1.116 6.014-.284" fill="#F7A273"/><path d="M33.62 54.74c1.146.729 1.146.729 1.489 1.824l.073 1.338.107 1.5.043.796c.074 1.371.185 2.738.297 4.107l.067.836c.322 3.736 1.159 7.371 2.034 11.011.161.801.161.801.161 1.973-4.289-1.181-7.221-4.963-9.395-8.676-1.812-3.353-3.503-7.806-2.715-11.637 1.647-3.355 4.386-4.35 7.839-3.072" fill="#EC8D5E"/><path d="m64.075 84.545 1.265-.008q1.322-.004 2.644.004c1.348.005 2.695-.008 4.043-.023q1.286 0 2.571.002l1.22-.016c2.794.036 2.794.036 4.323 1.2.754 1.064.966 1.431.793 2.699-.348 1.992-1.321 3.591-2.808 4.956-.736.339-.736.339-1.563.391-.966-.375-.966-.375-1.977-.928-2.89-1.556-5.698-2.009-8.923-1.094-1.429.565-2.663 1.168-3.943 2.021-.775-.035-.775-.035-1.563-.391-1.358-1.598-2.48-3.49-2.612-5.615.268-1.416.268-1.416.992-2.272 1.819-1.045 3.475-.938 5.538-.928" fill="#59415C"/><path d="M137.109 129.688h15.625v14.063l-.781-1.563c-1.245-2.2-2.614-3.57-5.078-4.297-2.318-.357-4.296-.122-6.346 1.038-1.167.894-1.891 2.011-2.638 3.259l-.781 1.172z" fill="#543E5B"/><path d="m64.075 175.964 1.265-.005q1.322-.002 2.644.009c1.348.008 2.695 0 4.043-.01l2.571.006 1.22-.01c1.729.023 2.802.052 4.321.926.72.854.72.854.94 2.222-.255 1.588-.546 1.949-1.782 2.93-.948.201-.948.201-2.017.208l-1.217.019-1.307-.006-1.348.008a343 343 0 0 1-2.821-.004c-1.441-.005-2.88.008-4.32.023l-2.741-.002-1.307.016c-2.973-.036-2.973-.036-4.298-1.179-.499-1.037-.499-1.037-.524-2.233 1.147-3.171 3.781-2.941 6.677-2.918" fill="#77940A"/><path d="M70.313 68.75c2.248 1.879 4.436 5.102 4.907 7.984-.254 1.155-.464 1.463-1.392 2.173-1.477.25-2.972.181-4.468.171l-1.243.023-1.197-.001-1.093.002c-1.279-.255-1.753-.742-2.546-1.759-.046-2.166 1.131-3.687 2.32-5.395l.539-.805c1.91-2.805 1.91-2.805 4.173-2.393" fill="#F9A373"/><path d="m33.984 110.156 1.09.602c5.065 2.767 10.105 4.982 15.707 6.43v1.953l-.907.167q-2.037.377-4.073.761l-1.428.263-1.373.259-1.264.236a9.7 9.7 0 0 0-2.672 1.049 916 916 0 0 1-1.88-3.516l-.535-.993c-2.665-5.017-2.665-5.017-2.665-7.211" fill="#FCC639"/><path d="m85.718 45.142 1.469-.024 1.41.001 1.292-.002c1.391.242 1.848.642 2.689 1.759.22 1.367.22 1.367 0 2.734-.878 1.091-1.613 1.51-2.998 1.724-1.283.078-2.553.09-3.838.083l-1.335.038c-3.12.004-3.12.004-4.288-.777-.917-1.04-1.213-1.705-1.213-3.094 1.131-3.18 3.9-2.458 6.812-2.441" fill="#56405C"/><path d="m52.515 45.142 1.469-.024 1.41.001 1.292-.002c1.391.242 1.852.639 2.689 1.759.284 2.313.284 2.313-.443 3.393-1.666 1.174-4.213.713-6.173.709l-1.525.034-1.464.003-1.341.008c-1.163-.242-1.163-.242-2.103-1.157-.623-1.038-.623-1.038-.598-2.259 1.051-3.223 3.893-2.482 6.787-2.466" fill="#543E5B"/><path d="M76.172 92.969c.719.652.719.652 1.172 1.172-2.54 2.302-5.784 3.275-9.178 3.236-2.691-.306-5.08-1.653-7.228-3.236 4.45-4.153 10.123-4.012 15.234-1.172" fill="#FC4356"/><path d="M87.891 58.594c1.326.801 1.876 1.447 2.734 2.734.167 1.096.089 2.001 0 3.125-1.172.781-1.172.781-2.295.659a69 69 0 0 1-2.27-.537c-1.01-.238-1.01-.238-2.075.659-1.102.137-1.714.135-2.686-.415-.44-.756-.44-.756-.44-2.05.48-1.771 1.073-2.483 2.344-3.784 1.445-.723 3.11-.574 4.688-.391" fill="#58405C"/><path d="M54.688 58.594c1.326.801 1.876 1.447 2.734 2.734.167 1.096.089 2.001 0 3.125-1.172.781-1.172.781-2.295.659a69 69 0 0 1-2.27-.537c-1.01-.238-1.01-.238-2.075.659-1.102.137-1.714.135-2.686-.415-.44-.756-.44-.756-.44-2.05.48-1.771 1.073-2.483 2.344-3.784 1.445-.723 3.11-.574 4.688-.391" fill="#58405B"/><path d="M49.609 51.172h3.516c-.932.739-1.591 1.181-2.734 1.563z" fill="#8D6F8E"/></svg>